<?xml version="1.0" standalone="no"?>
<!DOCTYPE svg PUBLIC "-//W3C//DTD SVG 1.1//EN" "http://www.w3.org/Graphics/SVG/1.1/DTD/svg11.dtd" >
<svg xmlns="http://www.w3.org/2000/svg" xmlns:xlink="http://www.w3.org/1999/xlink" version="1.1">
<metadata>
Created by FontForge 20170731 at Sun Aug 23 03:50:56 2020
 By Aleksey,,,
Copyright (c) 2020 by Brandsemut All Rights Reserved
</metadata>
<defs>
<font id="GLITTENALLCAPSRegular" horiz-adv-x="789" >
  <font-face 
    font-family="GLITTEN ALL CAPS"
    font-weight="400"
    font-variant="small-caps"
    font-stretch="normal"
    units-per-em="1000"
    panose-1="0 0 0 0 0 0 0 0 0 0"
    ascent="800"
    descent="-200"
    x-height="700"
    cap-height="700"
    bbox="-1 -183 1350 970"
    underline-thickness="50"
    underline-position="-200"
    unicode-range="U+000A-F043"
  />
<missing-glyph horiz-adv-x="527" 
d="M50 700h427v-700h-427v700zM78 680l185 -309l186 309h-371zM251 350l-180 300v-601zM264 329l-185 -308h370zM276 350l181 -303v605z" />
    <glyph glyph-name="CA.liga" unicode="CA" horiz-adv-x="909" 
d="M690 67v-1v146h-171l-50 -79q-7 -11 -10 -20t-2.5 -14.5t3 -10.5t5.5 -8l7 -7t5 -6h-112q3 4 20.5 11.5t38 21.5t33.5 33l354 567h12v-633q0 -14 4.5 -24t11 -16.5t13 -10.5t13 -8.5t8.5 -7.5h-233q3 4 16.5 11.5t23.5 21t10 34.5zM526 225h164l1 263zM398 17
q116 -9 200 77q-27 -49 -82 -78t-122 -29q-96 0 -177.5 49t-129 132.5t-47.5 181.5t47.5 181.5t129 132t177.5 48.5q64 0 138 -41q11 -7 20 -0.5t13 21.5v-209q-7 35 -20 70t-33 69.5t-51 56t-67 21.5q-67 0 -117.5 -49.5t-75 -128t-24.5 -172.5q0 -93 26 -166t76.5 -117.5
t118.5 -49.5z" />
    <glyph glyph-name="CH.liga" unicode="CH" horiz-adv-x="954" 
d="M867 67q0 -21 10 -34.5t23.5 -21t16.5 -11.5h-225q2 4 11 9.5t17.5 11t15 17.5t6.5 29v270h-283v-104q0 -21 10 -34t23.5 -21t16.5 -12h-225q2 4 11 10t17 11t15 17.5t7 28.5v234q0 21 -10.5 34.5t-24 21t-15.5 11.5h225q-3 -4 -12 -9.5t-17 -11t-14.5 -17.5t-6.5 -29
v-117h283v283q0 17 -6.5 29t-15 17.5t-17.5 11t-11 9.5h225q-3 -4 -12 -9.5t-17 -11t-14.5 -17.5t-6.5 -29v-566zM398 17q116 -9 200 77q-27 -49 -82 -77.5t-122 -28.5q-96 0 -177.5 48.5t-129 132t-47.5 181.5q0 74 28 141t75.5 115.5t113 77t137.5 28.5q64 0 138 -41
q8 -6 15 -3t11 9t7 15v-209q-7 35 -20 70t-33 69.5t-51 56t-67 21.5q-67 0 -117.5 -49.5t-75 -128t-24.5 -172.5q0 -93 26 -166t76.5 -117.5t118.5 -49.5z" />
    <glyph glyph-name="CK.liga" unicode="CK" horiz-adv-x="938" 
d="M854 67q12 -24 31 -37.5t34.5 -19.5t18.5 -10h-184q-25 51 -91 183q-1 3 -9.5 20t-13 25.5t-14.5 27t-17 30t-18 27.5t-20 25.5t-20 18t-22 12.5l-58 -77v-59q0 -21 10 -34t24 -21t16 -12h-225q3 4 16.5 12t23.5 21t10 34v234q0 21 -10 34.5t-23.5 21t-16.5 11.5h225
q-2 -4 -11 -9.5t-17 -11t-15 -17.5t-7 -29v-153l242 319q9 12 13 21.5t3 16.5t-3 11t-7 10t-6 8h117q-4 -5 -21.5 -12t-41 -21t-38.5 -34l-189 -250q55 -3 104 -30.5t82 -66t59 -86.5q52 -102 69 -134v1zM398 17q116 -9 200 77q-27 -49 -82 -77.5t-122 -28.5
q-96 0 -177.5 48.5t-129 132t-47.5 181.5t47.5 181.5t129 132.5t177.5 49q64 0 138 -42q8 -6 15 -3t11 9t7 15v-209q-7 35 -20 70t-33 69.5t-51 56t-67 21.5q-51 0 -92.5 -28.5t-68.5 -77t-41.5 -111.5t-14.5 -133q0 -141 59.5 -233t161.5 -100z" />
    <glyph glyph-name="EE.liga" unicode="EE" horiz-adv-x="582" 
d="M39 367q3 3 16.5 11t23.5 21t10 34v200q0 21 -10 34t-23.5 21t-16.5 12h408l34 -158l-6 9q-18 30 -27.5 44.5t-28 36t-36.5 31t-46.5 17t-64.5 7.5h-58v-141h109q20 0 33.5 16t21 37.5t11.5 25.5v-171q-4 4 -9.5 18.5t-11 27t-17.5 23t-29 10.5h-108v-154h108q32 0 59 7
t47.5 21t37 29t30.5 36.5t23 38t20 39.5l-42 -183h-458zM322 13q38 0 69.5 11t52.5 26.5t40.5 41t30.5 44.5t24 47l-42 -183h-458q3 4 16.5 11.5t23.5 21t10 34.5v200q0 16 -6.5 28t-15 17.5l-17 11t-11.5 9.5h408l34 -158q-2 3 -6 10q-18 30 -27.5 44t-28 35.5t-36.5 31
t-46.5 17.5t-64.5 8h-58v-142h109q20 0 33.5 16t21 37.5t11.5 25.5v-170q-4 4 -9.5 18t-11 27t-17.5 23.5t-29 10.5h-108v-154h108z" />
    <glyph glyph-name="EM.liga" unicode="EM" horiz-adv-x="1389" 
d="M1300 67q0 -21 10.5 -34.5t24 -21t15.5 -11.5h-225q3 4 12 9.5t17 11t14.5 17.5t6.5 29v601l-262 -668h-13l-275 624v-424q0 -21 10.5 -34t24 -21t15.5 -12h-112q2 3 7 6.5t10 6.5t11 8t11 10.5t8 15t3 20.5v433q0 17 -6.5 29t-15 17.5l-17 11t-11.5 9.5h154l246 -542
l212 542h175q-2 -4 -15.5 -11.5t-24 -21t-10.5 -34.5v-566zM555 12q37 0 68.5 11.5t53 27t41 41t30 44.5t23.5 47l-41 -183h-692q3 4 16.5 11.5t23.5 21t10 34.5v566q0 21 -10 34t-23.5 21t-16.5 12h442l33 -158l-6 9l-22.5 37.5t-22 31.5t-28 28.5t-32.5 20t-43.5 14.5
t-53.5 4h-92v-316h109q20 0 33.5 16t21 37.5t11.5 25.5v-171q-4 4 -11.5 25.5t-21 37.5t-34.5 16h-108v-346h342z" />
    <glyph glyph-name="EN.liga" unicode="EN" horiz-adv-x="1215" 
d="M1067 700h113q-3 -4 -12 -9.5t-17 -11t-14.5 -17.5t-6.5 -29v-633h-13l-500 639v-506q0 -21 10 -34t24 -20.5t16 -11.5h-112q2 4 11 9.5t17 11t15 17.5t7 28v500q0 21 -10.5 34.5t-24 21t-15.5 11.5h154l408 -509v442q0 17 -6.5 29t-14.5 17.5t-17 11t-12 9.5zM646 12
q38 0 69.5 11.5t52.5 27t40.5 41t30.5 44.5t24 47l-42 -183h-783q3 4 16.5 11.5t23.5 21t10 34.5v566q0 17 -6.5 29t-15 17.5l-17 11t-11.5 9.5h442l33 -158l-6 9q-17 30 -26.5 44.5t-28.5 36t-37 31t-46.5 17t-63.5 7.5h-92v-316h109q20 0 33.5 16t21 37.5t11.5 25.5v-171
q-4 4 -11.5 25.5t-21 37.5t-34.5 16h-108v-346h433z" />
    <glyph glyph-name="ER.liga" unicode="ER" horiz-adv-x="1200" 
d="M1112 67q12 -24 31 -37.5t34.5 -19.5t18.5 -10h-183q-26 51 -92 183q-1 3 -4 9q-13 26 -21.5 41t-25.5 38t-37.5 34.5t-44.5 11.5h-33v-250q0 -21 10 -34.5t23.5 -21t16.5 -11.5h-225q2 4 11 9.5t17 11t15 17.5t7 29v250h-267q-21 0 -34 -16t-21 -37.5t-12 -25.5v170
q4 -4 10 -18t11 -27t17.5 -23.5t28.5 -10.5h267v304q0 21 -10.5 34.5t-24 21t-15.5 11.5h225q141 0 212 -52t71 -148q0 -68 -54 -116.5t-156 -62.5q114 -22 165 -121q53 -102 69 -134v1zM805 329q81 0 115.5 39t34.5 132q0 96 -35.5 142t-114.5 46h-50v-359h50zM321 12
q27 0 51 6t42.5 15t35.5 23.5t28.5 28t23.5 32.5t19.5 33t16.5 33l-42 -183h-458q3 4 16.5 11.5t23.5 21t10 34.5v566q0 21 -10 34t-23.5 21t-16.5 12h442l33 -158l-6 9q-17 30 -26.5 44.5t-28.5 36t-37 31t-46.5 17t-63.5 7.5h-92v-675h108z" />
    <glyph glyph-name="FY.liga" unicode="FY" horiz-adv-x="927" 
d="M320 371q20 0 33.5 16t21 37.5t11.5 25.5v-171q-4 4 -11.5 25.5t-21 37.5t-34.5 16h-108v-291q0 -21 10 -34.5t23.5 -21t16.5 -11.5h-225q3 4 16.5 11.5t23.5 21t10 34.5v566q0 17 -6.5 29t-15 17.5l-17 11t-11.5 9.5h625l33 -158q-2 3 -6 10q-17 29 -26.5 43.5t-28 36
t-36.5 31t-46.5 17t-64.5 7.5h-275v-316h109zM812 700h116q-3 -4 -14 -9.5t-23.5 -11t-27.5 -17.5t-25 -29l-177 -300v-266q0 -21 10 -34.5t23.5 -21t16.5 -11.5h-225q3 4 16.5 11.5t23.5 21t10 34.5v266l-118 200q-9 16 -24 28t-27.5 17.5t-24 11.5t-14.5 10h231
q-1 -2 -8 -9.5t-10.5 -13t-2.5 -17.5t9 -27l107 -187l169 287q7 13 9.5 22.5t0 16.5t-5.5 11t-8 9t-7 8z" />
    <glyph glyph-name="KA.liga" unicode="KA" horiz-adv-x="993" 
d="M798 14q91 0 155 75q-26 -44 -77 -72.5t-117 -28.5q-50 0 -92.5 10.5t-75 30t-52.5 36t-43 40.5q-6 7 -81 97.5t-114 137.5q-14 19 -33 27l-57 -75v-225q0 -21 10 -34.5t23.5 -21t16.5 -11.5h-225q3 4 16.5 11.5t23.5 21t10 34.5v566q0 21 -10 34.5t-23.5 21t-16.5 11.5
h225q-3 -4 -11.5 -9.5l-17 -11t-15 -17.5t-6.5 -29v-319l241 319q9 12 13.5 21.5t3 16.5t-3 11t-6.5 10t-6 8h116q-3 -5 -21 -12t-41 -21t-38 -34l-189 -250q24 -2 46.5 -7.5t42.5 -17.5t35 -21.5t32.5 -28t26.5 -28.5t26.5 -31.5t22.5 -27.5q6 -6 16 -18q25 -28 38 -42
t36 -38t37.5 -36.5t36.5 -28.5t39.5 -24t39.5 -14t43 -6zM544 200q3 4 18.5 11.5t32 21t23.5 34.5l152 433h13l123 -433q5 -16 15.5 -28.5t20.5 -18l20 -11t13 -9.5h-230q3 4 11.5 9.5t14 11t10 17.5t-0.5 29l-16 66h-110l-23 -66q-8 -16 -4.5 -28.5t8.5 -17.5t13 -11.5
t10 -9.5h-114zM721 523l-63 -177h104z" />
    <glyph glyph-name="KE.liga" unicode="KE" horiz-adv-x="1082" 
d="M628 200q2 4 15.5 11.5t24 21t10.5 34.5v366q0 21 -10.5 34t-24 21t-15.5 12h366l34 -158l-6 9q-18 30 -27.5 44.5t-28 36t-36.5 31t-46.5 17t-64.5 7.5h-16v-208h67q16 0 28 10.5t17.5 23.5t11 27t9.5 18v-170q-4 4 -11.5 25.5t-21 37.5t-34.5 16h-66v-254h16q24 0 45 4
t38.5 12t32.5 17.5t28 23.5t23 26t19.5 29t16 29.5t14.5 28.5l-42 -183h-366zM845 14q99 0 168 75q-28 -44 -83.5 -72.5t-126.5 -28.5q-55 0 -101.5 10.5t-81.5 30t-56.5 36t-47.5 40.5q-6 7 -87.5 97.5t-123.5 137.5q-16 19 -37 28l-57 -76v-225q0 -21 10 -34.5t23.5 -21
t16.5 -11.5h-225q3 4 16.5 11.5t23.5 21t10 34.5v566q0 21 -10 34.5t-23.5 21t-16.5 11.5h225q-3 -4 -16.5 -11.5t-23.5 -21t-10 -34.5v-319l241 319q9 12 13.5 21.5t3 16.5t-3 11t-6.5 10t-6 8h116q-3 -5 -21 -12t-41 -21t-38 -34l-189 -250q24 -1 46.5 -6.5t40 -12.5
t36 -19t31.5 -21.5t29 -25.5t25 -25.5t24.5 -27t22.5 -24.5q5 -6 16 -18q38 -39 58 -58.5t54 -49.5t59 -44t58 -25.5t65 -11.5z" />
    <glyph glyph-name="KI.liga" unicode="KI" horiz-adv-x="872" 
d="M786 267q0 -21 10 -34.5t23.5 -21t16.5 -11.5h-225q3 4 11.5 9.5l17 11t15 17.5t6.5 29v366q0 17 -6.5 29t-15 17.5l-17 11t-11.5 9.5h225q-3 -4 -11.5 -9.5l-17 -11t-15 -17.5t-6.5 -29v-366zM695 67q29 -21 62.5 -35t54.5 -20.5t24 -11.5h-231l-341 362l-53 -70v-225
q0 -21 10 -34.5t23.5 -21t16.5 -11.5h-225q3 4 16.5 11.5t23.5 21t10 34.5v566q0 21 -10 34.5t-23.5 21t-16.5 11.5h225q-3 -4 -16.5 -11.5t-23.5 -21t-10 -34.5v-319l241 319q9 12 13.5 21.5t3 16.5t-3 11t-6.5 10t-6 8h116q-3 -5 -21 -12t-41 -21t-38 -34l-194 -257z" />
    <glyph glyph-name="KO.liga" unicode="KO" horiz-adv-x="1087" 
d="M793.5 193q-103.5 0 -177 75.5t-73.5 181.5q0 69 33.5 128t91 93.5t125.5 34.5q41 0 79 -13t69 -36.5t54 -55t36 -71t13 -80.5q0 -106 -73.5 -181.5t-177 -75.5zM793 694q-28 0 -49 -13.5t-33 -34.5t-19 -54.5t-9.5 -66t-2.5 -75.5q0 -36 1.5 -64t6 -57.5t12.5 -50.5
t20 -38t30.5 -25.5t42.5 -8.5q29 0 50 13t33 34.5t19 54.5t9 65.5t2 76.5q0 30 -1 54.5t-4 50.5t-8 46t-14 38t-20.5 29.5t-28 18.5t-37.5 7zM846 14q99 0 168 75q-28 -44 -83.5 -72.5t-126.5 -28.5q-55 0 -101.5 10.5t-81.5 30t-56.5 36t-47.5 40.5q-6 7 -87.5 97.5
t-123.5 137.5q-16 19 -37 28l-57 -76v-225q0 -21 10 -34.5t23.5 -21t16.5 -11.5h-225q3 4 16.5 11.5t23.5 21t10 34.5v566q0 17 -6.5 29t-15 17.5l-17 11t-11.5 9.5h225q-3 -4 -16.5 -11.5t-23.5 -21t-10 -34.5v-319l241 319q9 12 13.5 21.5t3 16.5t-3 11t-6.5 10t-6 8h116
q-3 -5 -21 -12t-41 -21t-38 -34l-189 -250q27 -1 51.5 -7t46.5 -17.5t38 -21.5t35.5 -28.5t29 -28t29 -31.5t25.5 -28q5 -6 16 -18q38 -39 58 -58.5t54 -49.5t59 -44t58 -25.5t65 -11.5z" />
    <glyph glyph-name="KU.liga" unicode="KU" horiz-adv-x="1120" 
d="M845 14q99 0 168 75q-28 -44 -83.5 -72.5t-126.5 -28.5q-55 0 -101.5 10.5t-81.5 30t-56.5 36t-47.5 40.5q-6 7 -87.5 97.5t-123.5 137.5q-16 19 -37 28l-57 -76v-225q0 -21 10 -34.5t23.5 -21t16.5 -11.5h-225q3 4 16.5 11.5t23.5 21t10 34.5v566q0 17 -6.5 29t-15 17.5
l-17 11t-11.5 9.5h225q-3 -4 -16.5 -11.5t-23.5 -21t-10 -34.5v-319l241 319q9 12 13.5 21.5t3 16.5t-3 11t-6.5 10t-6 8h116q-3 -5 -21 -12t-41 -21t-38 -34l-189 -250q24 -1 46.5 -6.5t40 -12.5t36 -19t31.5 -21.5t29 -25.5t25 -25.5t24.5 -27t22.5 -24.5q5 -6 16 -18
q38 -39 58 -58.5t54 -49.5t59 -44t58 -25.5t65 -11.5zM982 700h113q-3 -4 -11.5 -9.5l-17 -11t-15 -17.5t-6.5 -29v-252q0 -120 -70 -159q-39 -22 -103 -22q-42 0 -79 8t-72 26t-56 53t-21 82v264q0 21 -10 34.5t-23.5 21t-16.5 11.5h238q-3 -4 -12 -9.5t-17 -11
t-14.5 -17.5t-6.5 -29v-252q0 -36 3.5 -61.5t13 -49t29 -37.5t48.5 -19q37 -5 70 7q10 3 18 8q1 0 1.5 0.5l0.5 0.5q66 38 66 151v252q0 21 -10 34.5t-23.5 21t-16.5 11.5z" />
    <glyph glyph-name="LA.liga" unicode="LA" horiz-adv-x="941" 
d="M378 12q35 0 63.5 8t46.5 17.5t37 31t28.5 36t26.5 43.5q4 7 6 10l-33 -158h-517q3 4 16.5 11.5t23.5 21t10 34.5v566q0 17 -6.5 29t-15 17.5l-17 11t-11.5 9.5h225q-3 -4 -16.5 -11.5t-23.5 -21t-10 -34.5v-621h167zM707 0q2 3 10 10t11.5 12t6 17.5t-5.5 27.5l-60 145
h-242l-22 -62q-7 -16 -4 -28.5t8 -17.5t13 -11t10 -10h-113q3 5 18.5 12.5t32 20.5t23.5 34l193 550h13l263 -633q7 -16 19.5 -28t23.5 -17.5t21.5 -11.5t13.5 -10h-233zM432 225h231l-125 302z" />
    <glyph glyph-name="LE.liga" unicode="LE" horiz-adv-x="771" 
d="M511 213q37 0 69 11t53 26.5t40.5 41t30 44.5t24.5 47l-42 -183h-367q3 4 16.5 11.5t23.5 21t10 34.5v366q0 21 -10 34t-23.5 21t-16.5 12h367l33 -158l-6 9q-17 30 -26.5 44.5t-28 36t-36.5 31t-46.5 17t-64.5 7.5h-17v-208h67q21 0 34 16t21 37.5t12 25.5v-170
q-4 4 -10 18t-11 27t-17.5 23.5t-28.5 10.5h-67v-254h17zM469 13q36 0 64.5 7.5t46.5 17t36.5 31t28 36t27.5 43.5q4 7 6 10l-34 -158h-608q3 4 16.5 11.5t23.5 21t10 34.5v566q0 17 -6.5 29t-15 17.5l-17 11t-11.5 9.5h225q-3 -4 -16.5 -11.5t-23.5 -21t-10 -34.5v-620h258
z" />
    <glyph glyph-name="LH.liga" unicode="LH" horiz-adv-x="989" 
d="M903 67q0 -21 10 -34.5t23.5 -21t16.5 -11.5h-225q2 4 11 9.5t17 11t15 17.5t7 29v271h-284v-105q0 -21 10.5 -34t24 -21t15.5 -12h-225q3 4 16.5 12t23.5 21t10 34v400q0 14 -4 24t-10.5 16.5t-13.5 10.5t-13 8.5t-9 7.5h225q-2 -4 -15.5 -11.5t-24 -21t-10.5 -34.5
v-283h284v283q0 17 -7 29t-15 17.5t-17 11t-11 9.5h225q-3 -4 -12 -9.5t-17 -11t-14.5 -17.5t-6.5 -29v-566zM428 12q35 0 63.5 8t46.5 17.5t37 31t28.5 36t26.5 43.5q4 7 6 10l-33 -158h-567q3 4 16.5 11.5t23.5 21t10 34.5v566q0 17 -6.5 29t-15 17.5l-17 11t-11.5 9.5
h225q-3 -4 -16.5 -11.5t-23.5 -21t-10 -34.5v-621h217z" />
    <glyph glyph-name="LI.liga" unicode="LI" horiz-adv-x="589" 
d="M494 267q0 -21 10.5 -34.5t24 -21t15.5 -11.5h-225q3 4 16.5 11.5t23.5 21t10 34.5v366q0 17 -6.5 29t-14.5 17.5t-17 11t-12 9.5h225q-2 -4 -15.5 -11.5t-24 -21t-10.5 -34.5v-366zM336 13q36 0 64.5 7.5t46.5 17t36.5 31t28 36t26.5 43.5q2 3 2.5 4l1.5 3t2 3l-33 -158
h-475q3 4 16.5 11.5t23.5 21t10 34.5v566q0 17 -6.5 29t-15 17.5l-17 11t-11.5 9.5h225q-3 -4 -16.5 -11.5t-23.5 -21t-10 -34.5v-620h125z" />
    <glyph glyph-name="LK.liga" unicode="LK" horiz-adv-x="957" 
d="M869 67q12 -24 30.5 -37.5t34.5 -19.5t19 -10h-184q-25 51 -91 183q-1 3 -9.5 19.5t-13 25.5t-14.5 27.5t-17.5 30t-18 27.5t-20 25.5t-20.5 18t-21 12.5l-50 -66v-70q0 -21 10.5 -34t24 -21t15.5 -12h-225q3 4 16.5 12t23.5 21t10 34v400q0 17 -6.5 29t-14.5 17.5
t-17 11t-12 9.5h225q-2 -4 -15.5 -11.5t-24 -21t-10.5 -34.5v-308l233 308q9 12 13.5 21.5t3 16.5t-3 11t-6.5 10t-6 8h116q-3 -5 -21 -12t-41 -21t-38 -34l-189 -250q80 -5 142.5 -56t102.5 -127q52 -102 69 -134v1zM428 12q35 0 63.5 8t46.5 17.5t37 31t28.5 36t26.5 43.5
q1 3 2 4t2 3t2 3l-33 -158h-567q3 4 16.5 11.5t23.5 21t10 34.5v566q0 17 -6.5 29t-15 17.5l-17 11t-11.5 9.5h225q-3 -4 -16.5 -11.5t-23.5 -21t-10 -34.5v-621h217z" />
    <glyph glyph-name="LL.liga" unicode="LL" horiz-adv-x="719" 
d="M311 200q3 4 16.5 11.5t23.5 21t10 34.5v366q0 14 -4 24t-11 16.5t-13.5 10.5t-13 8.5t-8.5 7.5h225q-3 -4 -16.5 -11.5t-23.5 -21t-10 -34.5v-420q34 0 61 8.5t44 18t35.5 30.5t27.5 35t26 44l6 9l-33 -158h-342zM478 12q35 0 63.5 8t46.5 17.5t37 31t28.5 36t26.5 43.5
q4 7 6 10l-33 -158h-617q3 4 16.5 11.5t23.5 21t10 34.5v566q0 17 -6.5 29t-15 17.5l-17 11t-11.5 9.5h225q-3 -4 -16.5 -11.5t-23.5 -21t-10 -34.5v-621h267z" />
    <glyph glyph-name="LO.liga" unicode="LO" horiz-adv-x="858" 
d="M569 712q104 0 177 -75t73 -181q0 -52 -19.5 -99.5t-53 -81.5t-80 -54.5t-97.5 -20.5q-104 0 -177 75t-73 181t73 181t177 75zM569 212q29 0 49.5 13.5t32.5 34.5t19.5 54.5t9.5 66t2 76t-2 76t-9.5 65.5t-19.5 54.5t-32.5 34.5t-49.5 13t-49.5 -13t-32.5 -34.5
t-19 -54.5t-9.5 -65.5t-2.5 -76t2.5 -76t9.5 -66t19 -54.5t32.5 -34.5t49.5 -13.5zM536 12q100 0 153 63q18 20 55 83l-33 -158h-675q3 4 16.5 11.5t23.5 21t10 34.5v566q0 17 -6.5 29t-15 17.5l-17 11t-11.5 9.5h225q-3 -4 -16.5 -11.5t-23.5 -21t-10 -34.5v-621h325z" />
    <glyph glyph-name="LU.liga" unicode="LU" horiz-adv-x="846" 
d="M536 12q100 0 153 63q18 20 55 83l-33 -158h-675q3 4 16.5 11.5t23.5 21t10 34.5v566q0 17 -6.5 29t-15 17.5l-17 11t-11.5 9.5h225q-3 -4 -16.5 -11.5t-23.5 -21t-10 -34.5v-621h325zM706 700h112q-2 -4 -11 -9.5t-17 -11t-15 -17.5t-7 -29v-252q0 -120 -70 -159
q-39 -22 -103 -22q-41 0 -78.5 8t-72.5 26t-55.5 53t-20.5 82v264q0 21 -10.5 34.5t-24 21t-15.5 11.5h237q-3 -4 -16.5 -11.5t-23.5 -21t-10 -34.5v-252q0 -36 3.5 -61.5t13 -49t29 -37.5t49.5 -19q36 -5 69 7q11 4 20 9q67 38 67 151v252q0 17 -7 29t-15 17.5t-17 11
t-11 9.5z" />
    <glyph glyph-name="NN.liga" unicode="NN" horiz-adv-x="1209" 
d="M1061 700h112q-2 -4 -15.5 -11.5t-24 -21t-10.5 -34.5v-633h-12l-500 639v-639h-13l-500 639v-572q0 -21 10.5 -34.5t24 -21t15.5 -11.5h-112q3 4 16.5 11.5t23.5 21t10 34.5v566q0 21 -10 34.5t-23.5 21t-16.5 11.5h154l408 -509v442q0 8 -1 14q-3 16 -13 26t-21.5 16.5
t-14.5 10.5h155l408 -509v442q0 21 -10 34.5t-23.5 21t-16.5 11.5z" />
    <glyph glyph-name="OO.liga" unicode="OO" horiz-adv-x="1122" 
d="M727 712q96 0 177.5 -48.5t129 -132t47.5 -181.5t-47.5 -181.5t-129 -132.5t-177.5 -49q-89 0 -166 43q-78 -43 -167 -43q-96 0 -177.5 49t-129 132.5t-47.5 181.5t47.5 181.5t129 132t177.5 48.5q89 0 167 -42q77 42 166 42zM394 0q72 0 125 57q-68 50 -107 127t-39 166
t39 166t107 127q-53 57 -125 57q-51 0 -92.5 -28.5t-68.5 -77t-41.5 -111.5t-14.5 -133q0 -46 6.5 -90t19 -83t31 -71.5t42 -56t54 -36.5t64.5 -13zM560 117q51 96 51 233t-51 233q-50 -96 -50 -233t50 -233zM727 0q51 0 92.5 28.5t68.5 77t41.5 111.5t14.5 133
q0 94 -24.5 172.5t-75 128t-117.5 49.5q-72 0 -125 -57q68 -50 107 -127t39 -166t-39 -166t-107 -127q53 -57 125 -57z" />
    <glyph glyph-name="RA.liga" unicode="RA" horiz-adv-x="1102" 
d="M713 267q-8 -16 -4.5 -28.5t8 -17.5t13 -11.5t10.5 -9.5h-114q3 4 18.5 11.5t32 21t23.5 34.5l152 433h13l123 -433q6 -21 21 -34.5t30 -21t18 -11.5h-230q3 4 11 9.5t14 11t10.5 17.5t-0.5 29l-16 66h-110zM802 523l-62 -177h103zM890 19q118 0 196 88
q-32 -52 -97 -85.5t-148 -33.5q-64 0 -117.5 12.5t-95 35.5t-66.5 42.5t-55 47.5q-16 15 -77 84q-1 1 -4 5q-89 102 -182 102h-33v-250q0 -21 10 -34.5t23.5 -21t16.5 -11.5h-225q3 4 16.5 11.5t23.5 21t10 34.5v566q0 21 -10 34.5t-23.5 21t-16.5 11.5h225q141 0 212 -52
t71 -148q0 -69 -55 -118t-160 -61q81 -13 145.5 -41t116.5 -83q9 -10 27 -28q35 -36 52 -52.5t45.5 -39.5t51 -33t54.5 -17.5t69 -7.5zM211 329h50q82 0 116 39t34 132q0 96 -35 142t-115 46h-50v-359z" />
    <glyph glyph-name="RE.liga" unicode="RE" horiz-adv-x="1097" 
d="M641 200q2 4 16 11.5t24 21t10 34.5v366q0 21 -10 34t-24 21t-16 12h367l33 -158l-6 9q-18 30 -27 44.5t-28 36t-37 31t-46.5 17t-63.5 7.5h-17v-208h67q21 0 34 16t20.5 37.5t11.5 25.5v-170q-4 4 -11.5 25.5t-20.5 37.5t-34 16h-67v-254h17q37 0 68.5 11t52.5 26.5
t41 41t30.5 44.5t23.5 47l-41 -183h-367zM844 19q118 0 195 88q-20 -34 -54.5 -60t-84.5 -42.5t-106 -16.5q-63 0 -117 12.5t-95.5 35.5t-66.5 42.5t-54 47.5q-16 15 -78 84q-1 1 -9.5 10.5t-13.5 15.5t-16 17t-19.5 18.5t-20.5 17t-22 15t-21.5 9.5t-21.5 4h-28v-250
q0 -21 10 -34.5t23.5 -21t16.5 -11.5h-225q3 4 16.5 11.5t23.5 21t10 34.5v566q0 21 -10 34.5t-23.5 21t-16.5 11.5h225q141 0 212 -52t71 -148q0 -69 -55.5 -118t-161.5 -62q65 -11 114 -38.5t103 -84.5q9 -9 31 -31.5t29 -30t26 -25.5t27 -24t25 -19t28 -17.5t28 -12.5
t32 -10.5t34 -5t40 -2.5zM211 329h50q82 0 116 39t34 132q0 96 -35 142t-115 46h-50v-359z" />
    <glyph glyph-name="RI.liga" unicode="RI" horiz-adv-x="864" 
d="M778 267q0 -21 10 -34.5t23.5 -21t16.5 -11.5h-225q2 4 15.5 11.5t24 21t10.5 34.5v366q0 14 -4.5 24t-11 16.5t-13 10.5t-13 8.5t-8.5 7.5h225q-3 -4 -16.5 -11.5t-23.5 -21t-10 -34.5v-366zM683 67q28 -21 63 -34.5t56.5 -20.5t25.5 -12h-231l-299 318q-10 -1 -20 -1
h-67v-250q0 -21 10 -34.5t23.5 -21t16.5 -11.5h-225q3 4 16.5 11.5t23.5 21t10 34.5v566q0 21 -10 34.5t-23.5 21t-16.5 11.5h225q141 0 212 -52t71 -148q0 -70 -57 -119.5t-165 -60.5zM261 329q82 0 116 39t34 132q0 96 -35 142t-115 46h-50v-359h50z" />
    <glyph glyph-name="RO.liga" unicode="RO" horiz-adv-x="1163" 
d="M870.5 192q-103.5 0 -177 75t-73.5 181q0 52 20 99.5t53.5 81.5t79.5 54.5t97 20.5q104 0 177 -75t73 -181t-73 -181t-176.5 -75zM870 692q-28 0 -49 -13.5t-33 -34.5t-19 -54.5t-9.5 -66t-2.5 -76t2.5 -76t9.5 -65.5t19 -54.5t33 -34.5t49.5 -13t49 13t33 34.5
t19.5 54.5t9 65.5t2 76.5q0 30 -1 54.5t-4 50.5t-8 46t-14 38t-20.5 29.5t-28 18.5t-37.5 7zM891 19q43 0 80 11t61.5 29t35 27.5t18.5 18.5q1 1 1 2q-21 -34 -55.5 -60t-84 -42.5t-105.5 -16.5q-64 0 -117.5 12.5t-95 35.5t-66.5 42.5t-55 47.5q-16 15 -77 84q-1 1 -4 5
q-15 16 -27.5 28t-37 32t-54.5 31t-63 11h-33v-250q0 -21 10 -34.5t23.5 -21t16.5 -11.5h-225q3 4 16.5 11.5t23.5 21t10 34.5v566q0 21 -10 34.5t-23.5 21t-16.5 11.5h225q141 0 212 -52t71 -148q0 -69 -55 -118t-160 -61q81 -13 145.5 -41t116.5 -83q9 -9 30.5 -31.5
t29 -30t26 -25.5t27 -24t25.5 -19t28 -17.5t28 -12.5t32 -10.5t34 -5t39 -2.5zM212 329h50q82 0 116 39t34 132q0 96 -35 142t-115 46h-50v-359z" />
    <glyph glyph-name="RR.liga" unicode="RR" horiz-adv-x="1134" 
d="M594 200q3 4 16.5 11.5t23.5 21t10 34.5v366q0 14 -4 24t-10.5 16.5t-13.5 10.5t-13 8.5t-9 7.5h175q139 -2 202 -37t63 -120q0 -114 -182 -137q56 -11 95 -40t67 -83q5 -8 10 -18l-1 2q12 -24 31 -37.5t35 -19.5t18 -10h-181q-8 15 -33 67q-3 6 -12 25.5t-14.5 30
t-17 27.5t-21.5 26.5t-25.5 16.5t-33.5 7v-133q0 -21 10.5 -34.5t24 -21t15.5 -11.5h-225zM769 687v-274q69 3 100.5 32t31.5 98q0 77 -30 109t-102 35zM895 19q126 0 212 88q-22 -34 -59.5 -60t-91.5 -42.5t-114 -16.5q-70 0 -128.5 12.5t-103 35.5t-72 42.5t-59.5 47.5
q-17 15 -84 84q-1 1 -8.5 9t-12.5 13.5t-15 15t-18 16.5t-18.5 15.5t-20.5 14.5t-21 11.5t-21.5 8.5t-20.5 3h-28v-250q0 -21 10 -34.5t23.5 -21t16.5 -11.5h-225q3 4 16.5 11.5t23.5 21t10 34.5v566q0 21 -10 34.5t-23.5 21t-16.5 11.5h225q141 0 212 -52t71 -148
q0 -68 -54.5 -117t-158.5 -62q72 -12 126 -39t113 -85q10 -10 29 -28q38 -36 56.5 -52.5t50 -39.5t55.5 -33t59 -17.5t75 -7.5zM211 329h50q82 0 116 39t34 132q0 96 -35 142t-115 46h-50v-359z" />
    <glyph glyph-name="RU.liga" unicode="RU" horiz-adv-x="1137" 
d="M890 19q43 0 80 11t61.5 29t35 27.5t18.5 18.5q1 1 1 2q-21 -34 -55.5 -60t-84 -42.5t-105.5 -16.5q-64 0 -117.5 12.5t-95 35.5t-66.5 42.5t-55 47.5q-16 15 -77 84q-1 1 -4 5q-89 102 -182 102h-33v-250q0 -21 10 -34.5t23.5 -21t16.5 -11.5h-225q3 4 16.5 11.5
t23.5 21t10 34.5v566q0 21 -10 34.5t-23.5 21t-16.5 11.5h225q141 0 212 -52t71 -148q0 -69 -55 -118t-160 -61q81 -13 145.5 -41t116.5 -83q9 -9 30.5 -31.5t29 -30t26 -25.5t27 -24t25.5 -19t28 -17.5t28 -12.5t32 -10.5t34 -5t39 -2.5zM211 329h50q82 0 116 39t34 132
q0 96 -35 142t-115 46h-50v-359zM991 700h112q-2 -4 -11 -9.5t-17 -11t-15 -17.5t-7 -29v-252q0 -120 -70 -159q-39 -22 -103 -22q-41 0 -78.5 8t-72.5 26t-55.5 53t-20.5 82v264q0 21 -10 34.5t-24 21t-16 11.5h237q-3 -4 -16.5 -11.5t-23.5 -21t-10 -34.5v-252
q0 -36 3.5 -61.5t13 -49t29 -37.5t49.5 -19q36 -5 69 7q12 4 20 9q67 38 67 151v252q0 21 -10 34.5t-24 21t-16 11.5z" />
    <glyph glyph-name="TI.liga" unicode="TI" horiz-adv-x="756" 
d="M673 67q0 -21 10.5 -34.5t24 -21t15.5 -11.5h-225q3 4 12 9.5t17 11t14.5 17.5t6.5 29v333q0 21 -10 34t-23.5 21t-16.5 12h225q-2 -4 -15.5 -12t-24 -21t-10.5 -34v-333zM390 67q0 -21 10 -34.5t23.5 -21t16.5 -11.5h-225q3 4 16.5 11.5t23.5 21t10 34.5v621h-42
q-35 0 -63.5 -8t-46.5 -17.5t-37 -31t-28.5 -36t-26.5 -43.5q-4 -7 -6 -10l33 158h559l33 -158q-2 3 -6 10q-17 29 -26.5 43.5t-28.5 36t-37 31t-46.5 17t-63.5 7.5h-42v-620z" />
    <glyph glyph-name="TT.liga" unicode="TT" horiz-adv-x="1014" 
d="M790 687l-42 1v-621q0 -21 10.5 -34.5t24 -21t15.5 -11.5h-225q3 4 12 9.5t17 11t14.5 17.5t6.5 29v621h-233v-621q0 -21 10 -34.5t23.5 -21t16.5 -11.5h-225q3 4 16.5 11.5t23.5 21t10 34.5v621h-42q-35 0 -63.5 -8t-46.5 -17.5t-37 -31t-28.5 -36t-26.5 -43.5
q-4 -7 -6 -10l33 158h917l33 -158q-2 3 -6 10q-17 29 -26.5 43.5t-28 36t-36.5 31t-46.5 17t-64.5 7.5z" />
    <glyph glyph-name="TU.liga" unicode="TU" horiz-adv-x="1105" 
d="M961 700h112q-2 -4 -11 -9.5t-17 -11t-15 -17.5t-7 -29v-393q0 -124 -60 -188.5t-156 -64.5q-49 0 -86.5 5t-78 20.5t-67 42t-43.5 73.5t-17 112v293q0 21 -10 34.5t-23.5 21t-16.5 11.5h225q-3 -4 -16.5 -11.5t-23.5 -21t-10 -34.5v-315q0 -53 8 -91.5t26.5 -68
t51.5 -44t81 -14.5q39 0 74 12.5t65 39.5t47.5 75t17.5 113v393q0 17 -7 29t-15 17.5t-17 11t-11 9.5zM390 67q0 -21 10 -34.5t23.5 -21t16.5 -11.5h-225q3 4 16.5 11.5t23.5 21t10 34.5v621h-42q-35 0 -63.5 -8t-46.5 -17.5t-37 -31t-28.5 -36t-26.5 -43.5q-4 -7 -6 -10
l33 158h759l33 -158q-2 3 -6 10q-17 29 -26.5 43.5t-28.5 36t-37 31t-46.5 17.5t-63.5 8h-242v-621z" />
    <glyph glyph-name="TY.liga" unicode="TY" horiz-adv-x="1064" 
d="M390 67q0 -21 10 -34.5t23.5 -21t16.5 -11.5h-225q3 4 11.5 9.5l17 11t15 17.5t6.5 29v621h-42q-35 0 -63.5 -8t-46.5 -17.5t-37 -31t-28.5 -36t-26.5 -43.5q-4 -7 -6 -10l33 158h734l33 -158q-2 3 -6 10q-17 29 -26.5 43.5t-28.5 36t-37 31t-46.5 17t-63.5 7.5h-217
v-620zM949 700h115q-3 -4 -14 -9.5t-23.5 -11t-27 -17.5t-24.5 -29l-177 -300v-266q0 -21 10 -34.5t23.5 -21t16.5 -11.5h-225q2 4 11 9.5t17 11t15 17.5t7 29v266l-119 200q-11 20 -31.5 33.5t-37.5 21t-20 12.5h231q-2 -2 -9 -9.5t-10 -13t-2.5 -17.5t9.5 -27l106 -187
l169 287q9 16 10 27.5t-2 17t-10 12.5t-8 10z" />
    <glyph glyph-name="ca.liga" unicode="ca" horiz-adv-x="909" 
d="M690 67v-1v146h-171l-50 -79q-7 -11 -10 -20t-2.5 -14.5t3 -10.5t5.5 -8l7 -7t5 -6h-112q3 4 20.5 11.5t38 21.5t33.5 33l354 567h12v-633q0 -14 4.5 -24t11 -16.5t13 -10.5t13 -8.5t8.5 -7.5h-233q3 4 16.5 11.5t23.5 21t10 34.5zM526 225h164l1 263zM398 17
q116 -9 200 77q-27 -49 -82 -78t-122 -29q-96 0 -177.5 49t-129 132.5t-47.5 181.5t47.5 181.5t129 132t177.5 48.5q64 0 138 -41q11 -7 20 -0.5t13 21.5v-209q-7 35 -20 70t-33 69.5t-51 56t-67 21.5q-67 0 -117.5 -49.5t-75 -128t-24.5 -172.5q0 -93 26 -166t76.5 -117.5
t118.5 -49.5z" />
    <glyph glyph-name="ch.liga" unicode="ch" horiz-adv-x="954" 
d="M867 67q0 -21 10 -34.5t23.5 -21t16.5 -11.5h-225q2 4 11 9.5t17.5 11t15 17.5t6.5 29v270h-283v-104q0 -21 10 -34t23.5 -21t16.5 -12h-225q2 4 11 10t17 11t15 17.5t7 28.5v234q0 21 -10.5 34.5t-24 21t-15.5 11.5h225q-3 -4 -12 -9.5t-17 -11t-14.5 -17.5t-6.5 -29
v-117h283v283q0 17 -6.5 29t-15 17.5t-17.5 11t-11 9.5h225q-3 -4 -12 -9.5t-17 -11t-14.5 -17.5t-6.5 -29v-566zM398 17q116 -9 200 77q-27 -49 -82 -77.5t-122 -28.5q-96 0 -177.5 48.5t-129 132t-47.5 181.5q0 74 28 141t75.5 115.5t113 77t137.5 28.5q64 0 138 -41
q8 -6 15 -3t11 9t7 15v-209q-7 35 -20 70t-33 69.5t-51 56t-67 21.5q-67 0 -117.5 -49.5t-75 -128t-24.5 -172.5q0 -93 26 -166t76.5 -117.5t118.5 -49.5z" />
    <glyph glyph-name="ck.liga" unicode="ck" horiz-adv-x="938" 
d="M854 67q12 -24 31 -37.5t34.5 -19.5t18.5 -10h-184q-25 51 -91 183q-1 3 -9.5 20t-13 25.5t-14.5 27t-17 30t-18 27.5t-20 25.5t-20 18t-22 12.5l-58 -77v-59q0 -21 10 -34t24 -21t16 -12h-225q3 4 16.5 12t23.5 21t10 34v234q0 21 -10 34.5t-23.5 21t-16.5 11.5h225
q-2 -4 -11 -9.5t-17 -11t-15 -17.5t-7 -29v-153l242 319q9 12 13 21.5t3 16.5t-3 11t-7 10t-6 8h117q-4 -5 -21.5 -12t-41 -21t-38.5 -34l-189 -250q55 -3 104 -30.5t82 -66t59 -86.5q52 -102 69 -134v1zM398 17q116 -9 200 77q-27 -49 -82 -77.5t-122 -28.5
q-96 0 -177.5 48.5t-129 132t-47.5 181.5t47.5 181.5t129 132.5t177.5 49q64 0 138 -42q8 -6 15 -3t11 9t7 15v-209q-7 35 -20 70t-33 69.5t-51 56t-67 21.5q-51 0 -92.5 -28.5t-68.5 -77t-41.5 -111.5t-14.5 -133q0 -141 59.5 -233t161.5 -100z" />
    <glyph glyph-name="ee.liga" unicode="ee" horiz-adv-x="582" 
d="M39 367q3 3 16.5 11t23.5 21t10 34v200q0 21 -10 34t-23.5 21t-16.5 12h408l34 -158l-6 9q-18 30 -27.5 44.5t-28 36t-36.5 31t-46.5 17t-64.5 7.5h-58v-141h109q20 0 33.5 16t21 37.5t11.5 25.5v-171q-4 4 -9.5 18.5t-11 27t-17.5 23t-29 10.5h-108v-154h108q32 0 59 7
t47.5 21t37 29t30.5 36.5t23 38t20 39.5l-42 -183h-458zM322 13q38 0 69.5 11t52.5 26.5t40.5 41t30.5 44.5t24 47l-42 -183h-458q3 4 16.5 11.5t23.5 21t10 34.5v200q0 16 -6.5 28t-15 17.5l-17 11t-11.5 9.5h408l34 -158q-2 3 -6 10q-18 30 -27.5 44t-28 35.5t-36.5 31
t-46.5 17.5t-64.5 8h-58v-142h109q20 0 33.5 16t21 37.5t11.5 25.5v-170q-4 4 -9.5 18t-11 27t-17.5 23.5t-29 10.5h-108v-154h108z" />
    <glyph glyph-name="em.liga" unicode="em" horiz-adv-x="1389" 
d="M1300 67q0 -21 10.5 -34.5t24 -21t15.5 -11.5h-225q3 4 12 9.5t17 11t14.5 17.5t6.5 29v601l-262 -668h-13l-275 624v-424q0 -21 10.5 -34t24 -21t15.5 -12h-112q2 3 7 6.5t10 6.5t11 8t11 10.5t8 15t3 20.5v433q0 17 -6.5 29t-15 17.5l-17 11t-11.5 9.5h154l246 -542
l212 542h175q-2 -4 -15.5 -11.5t-24 -21t-10.5 -34.5v-566zM555 12q37 0 68.5 11.5t53 27t41 41t30 44.5t23.5 47l-41 -183h-692q3 4 16.5 11.5t23.5 21t10 34.5v566q0 21 -10 34t-23.5 21t-16.5 12h442l33 -158l-6 9l-22.5 37.5t-22 31.5t-28 28.5t-32.5 20t-43.5 14.5
t-53.5 4h-92v-316h109q20 0 33.5 16t21 37.5t11.5 25.5v-171q-4 4 -11.5 25.5t-21 37.5t-34.5 16h-108v-346h342z" />
    <glyph glyph-name="en.liga" unicode="en" horiz-adv-x="1215" 
d="M1067 700h113q-3 -4 -12 -9.5t-17 -11t-14.5 -17.5t-6.5 -29v-633h-13l-500 639v-506q0 -21 10 -34t24 -20.5t16 -11.5h-112q2 4 11 9.5t17 11t15 17.5t7 28v500q0 21 -10.5 34.5t-24 21t-15.5 11.5h154l408 -509v442q0 17 -6.5 29t-14.5 17.5t-17 11t-12 9.5zM646 12
q38 0 69.5 11.5t52.5 27t40.5 41t30.5 44.5t24 47l-42 -183h-783q3 4 16.5 11.5t23.5 21t10 34.5v566q0 17 -6.5 29t-15 17.5l-17 11t-11.5 9.5h442l33 -158l-6 9q-17 30 -26.5 44.5t-28.5 36t-37 31t-46.5 17t-63.5 7.5h-92v-316h109q20 0 33.5 16t21 37.5t11.5 25.5v-171
q-4 4 -11.5 25.5t-21 37.5t-34.5 16h-108v-346h433z" />
    <glyph glyph-name="er.liga" unicode="er" horiz-adv-x="1200" 
d="M1112 67q12 -24 31 -37.5t34.5 -19.5t18.5 -10h-183q-26 51 -92 183q-1 3 -4 9q-13 26 -21.5 41t-25.5 38t-37.5 34.5t-44.5 11.5h-33v-250q0 -21 10 -34.5t23.5 -21t16.5 -11.5h-225q2 4 11 9.5t17 11t15 17.5t7 29v250h-267q-21 0 -34 -16t-21 -37.5t-12 -25.5v170
q4 -4 10 -18t11 -27t17.5 -23.5t28.5 -10.5h267v304q0 21 -10.5 34.5t-24 21t-15.5 11.5h225q141 0 212 -52t71 -148q0 -68 -54 -116.5t-156 -62.5q114 -22 165 -121q53 -102 69 -134v1zM805 329q81 0 115.5 39t34.5 132q0 96 -35.5 142t-114.5 46h-50v-359h50zM321 12
q27 0 51 6t42.5 15t35.5 23.5t28.5 28t23.5 32.5t19.5 33t16.5 33l-42 -183h-458q3 4 16.5 11.5t23.5 21t10 34.5v566q0 21 -10 34t-23.5 21t-16.5 12h442l33 -158l-6 9q-17 30 -26.5 44.5t-28.5 36t-37 31t-46.5 17t-63.5 7.5h-92v-675h108z" />
    <glyph glyph-name="fy.liga" unicode="fy" horiz-adv-x="927" 
d="M320 371q20 0 33.5 16t21 37.5t11.5 25.5v-171q-4 4 -11.5 25.5t-21 37.5t-34.5 16h-108v-291q0 -21 10 -34.5t23.5 -21t16.5 -11.5h-225q3 4 16.5 11.5t23.5 21t10 34.5v566q0 17 -6.5 29t-15 17.5l-17 11t-11.5 9.5h625l33 -158q-2 3 -6 10q-17 29 -26.5 43.5t-28 36
t-36.5 31t-46.5 17t-64.5 7.5h-275v-316h109zM812 700h116q-3 -4 -14 -9.5t-23.5 -11t-27.5 -17.5t-25 -29l-177 -300v-266q0 -21 10 -34.5t23.5 -21t16.5 -11.5h-225q3 4 16.5 11.5t23.5 21t10 34.5v266l-118 200q-9 16 -24 28t-27.5 17.5t-24 11.5t-14.5 10h231
q-1 -2 -8 -9.5t-10.5 -13t-2.5 -17.5t9 -27l107 -187l169 287q7 13 9.5 22.5t0 16.5t-5.5 11t-8 9t-7 8z" />
    <glyph glyph-name="ka.liga" unicode="ka" horiz-adv-x="993" 
d="M798 14q91 0 155 75q-26 -44 -77 -72.5t-117 -28.5q-50 0 -92.5 10.5t-75 30t-52.5 36t-43 40.5q-6 7 -81 97.5t-114 137.5q-14 19 -33 27l-57 -75v-225q0 -21 10 -34.5t23.5 -21t16.5 -11.5h-225q3 4 16.5 11.5t23.5 21t10 34.5v566q0 21 -10 34.5t-23.5 21t-16.5 11.5
h225q-3 -4 -11.5 -9.5l-17 -11t-15 -17.5t-6.5 -29v-319l241 319q9 12 13.5 21.5t3 16.5t-3 11t-6.5 10t-6 8h116q-3 -5 -21 -12t-41 -21t-38 -34l-189 -250q24 -2 46.5 -7.5t42.5 -17.5t35 -21.5t32.5 -28t26.5 -28.5t26.5 -31.5t22.5 -27.5q6 -6 16 -18q25 -28 38 -42
t36 -38t37.5 -36.5t36.5 -28.5t39.5 -24t39.5 -14t43 -6zM544 200q3 4 18.5 11.5t32 21t23.5 34.5l152 433h13l123 -433q5 -16 15.5 -28.5t20.5 -18l20 -11t13 -9.5h-230q3 4 11.5 9.5t14 11t10 17.5t-0.5 29l-16 66h-110l-23 -66q-8 -16 -4.5 -28.5t8.5 -17.5t13 -11.5
t10 -9.5h-114zM721 523l-63 -177h104z" />
    <glyph glyph-name="ke.liga" unicode="ke" horiz-adv-x="1082" 
d="M628 200q2 4 15.5 11.5t24 21t10.5 34.5v366q0 21 -10.5 34t-24 21t-15.5 12h366l34 -158l-6 9q-18 30 -27.5 44.5t-28 36t-36.5 31t-46.5 17t-64.5 7.5h-16v-208h67q16 0 28 10.5t17.5 23.5t11 27t9.5 18v-170q-4 4 -11.5 25.5t-21 37.5t-34.5 16h-66v-254h16q24 0 45 4
t38.5 12t32.5 17.5t28 23.5t23 26t19.5 29t16 29.5t14.5 28.5l-42 -183h-366zM845 14q99 0 168 75q-28 -44 -83.5 -72.5t-126.5 -28.5q-55 0 -101.5 10.5t-81.5 30t-56.5 36t-47.5 40.5q-6 7 -87.5 97.5t-123.5 137.5q-16 19 -37 28l-57 -76v-225q0 -21 10 -34.5t23.5 -21
t16.5 -11.5h-225q3 4 16.5 11.5t23.5 21t10 34.5v566q0 21 -10 34.5t-23.5 21t-16.5 11.5h225q-3 -4 -16.5 -11.5t-23.5 -21t-10 -34.5v-319l241 319q9 12 13.5 21.5t3 16.5t-3 11t-6.5 10t-6 8h116q-3 -5 -21 -12t-41 -21t-38 -34l-189 -250q24 -1 46.5 -6.5t40 -12.5
t36 -19t31.5 -21.5t29 -25.5t25 -25.5t24.5 -27t22.5 -24.5q5 -6 16 -18q38 -39 58 -58.5t54 -49.5t59 -44t58 -25.5t65 -11.5z" />
    <glyph glyph-name="ki.liga" unicode="ki" horiz-adv-x="872" 
d="M786 267q0 -21 10 -34.5t23.5 -21t16.5 -11.5h-225q3 4 11.5 9.5l17 11t15 17.5t6.5 29v366q0 17 -6.5 29t-15 17.5l-17 11t-11.5 9.5h225q-3 -4 -11.5 -9.5l-17 -11t-15 -17.5t-6.5 -29v-366zM695 67q29 -21 62.5 -35t54.5 -20.5t24 -11.5h-231l-341 362l-53 -70v-225
q0 -21 10 -34.5t23.5 -21t16.5 -11.5h-225q3 4 16.5 11.5t23.5 21t10 34.5v566q0 21 -10 34.5t-23.5 21t-16.5 11.5h225q-3 -4 -16.5 -11.5t-23.5 -21t-10 -34.5v-319l241 319q9 12 13.5 21.5t3 16.5t-3 11t-6.5 10t-6 8h116q-3 -5 -21 -12t-41 -21t-38 -34l-194 -257z" />
    <glyph glyph-name="ko.liga" unicode="ko" horiz-adv-x="1087" 
d="M793.5 193q-103.5 0 -177 75.5t-73.5 181.5q0 69 33.5 128t91 93.5t125.5 34.5q41 0 79 -13t69 -36.5t54 -55t36 -71t13 -80.5q0 -106 -73.5 -181.5t-177 -75.5zM793 694q-28 0 -49 -13.5t-33 -34.5t-19 -54.5t-9.5 -66t-2.5 -75.5q0 -36 1.5 -64t6 -57.5t12.5 -50.5
t20 -38t30.5 -25.5t42.5 -8.5q29 0 50 13t33 34.5t19 54.5t9 65.5t2 76.5q0 30 -1 54.5t-4 50.5t-8 46t-14 38t-20.5 29.5t-28 18.5t-37.5 7zM846 14q99 0 168 75q-28 -44 -83.5 -72.5t-126.5 -28.5q-55 0 -101.5 10.5t-81.5 30t-56.5 36t-47.5 40.5q-6 7 -87.5 97.5
t-123.5 137.5q-16 19 -37 28l-57 -76v-225q0 -21 10 -34.5t23.5 -21t16.5 -11.5h-225q3 4 16.5 11.5t23.5 21t10 34.5v566q0 17 -6.5 29t-15 17.5l-17 11t-11.5 9.5h225q-3 -4 -16.5 -11.5t-23.5 -21t-10 -34.5v-319l241 319q9 12 13.5 21.5t3 16.5t-3 11t-6.5 10t-6 8h116
q-3 -5 -21 -12t-41 -21t-38 -34l-189 -250q27 -1 51.5 -7t46.5 -17.5t38 -21.5t35.5 -28.5t29 -28t29 -31.5t25.5 -28q5 -6 16 -18q38 -39 58 -58.5t54 -49.5t59 -44t58 -25.5t65 -11.5z" />
    <glyph glyph-name="ku.liga" unicode="ku" horiz-adv-x="1120" 
d="M845 14q99 0 168 75q-28 -44 -83.5 -72.5t-126.5 -28.5q-55 0 -101.5 10.5t-81.5 30t-56.5 36t-47.5 40.5q-6 7 -87.5 97.5t-123.5 137.5q-16 19 -37 28l-57 -76v-225q0 -21 10 -34.5t23.5 -21t16.5 -11.5h-225q3 4 16.5 11.5t23.5 21t10 34.5v566q0 17 -6.5 29t-15 17.5
l-17 11t-11.5 9.5h225q-3 -4 -16.5 -11.5t-23.5 -21t-10 -34.5v-319l241 319q9 12 13.5 21.5t3 16.5t-3 11t-6.5 10t-6 8h116q-3 -5 -21 -12t-41 -21t-38 -34l-189 -250q24 -1 46.5 -6.5t40 -12.5t36 -19t31.5 -21.5t29 -25.5t25 -25.5t24.5 -27t22.5 -24.5q5 -6 16 -18
q38 -39 58 -58.5t54 -49.5t59 -44t58 -25.5t65 -11.5zM982 700h113q-3 -4 -11.5 -9.5l-17 -11t-15 -17.5t-6.5 -29v-252q0 -120 -70 -159q-39 -22 -103 -22q-42 0 -79 8t-72 26t-56 53t-21 82v264q0 21 -10 34.5t-23.5 21t-16.5 11.5h238q-3 -4 -12 -9.5t-17 -11
t-14.5 -17.5t-6.5 -29v-252q0 -36 3.5 -61.5t13 -49t29 -37.5t48.5 -19q37 -5 70 7q10 3 18 8q1 0 1.5 0.5l0.5 0.5q66 38 66 151v252q0 21 -10 34.5t-23.5 21t-16.5 11.5z" />
    <glyph glyph-name="la.liga" unicode="la" horiz-adv-x="941" 
d="M378 12q35 0 63.5 8t46.5 17.5t37 31t28.5 36t26.5 43.5q4 7 6 10l-33 -158h-517q3 4 16.5 11.5t23.5 21t10 34.5v566q0 17 -6.5 29t-15 17.5l-17 11t-11.5 9.5h225q-3 -4 -16.5 -11.5t-23.5 -21t-10 -34.5v-621h167zM707 0q2 3 10 10t11.5 12t6 17.5t-5.5 27.5l-60 145
h-242l-22 -62q-7 -16 -4 -28.5t8 -17.5t13 -11t10 -10h-113q3 5 18.5 12.5t32 20.5t23.5 34l193 550h13l263 -633q7 -16 19.5 -28t23.5 -17.5t21.5 -11.5t13.5 -10h-233zM432 225h231l-125 302z" />
    <glyph glyph-name="le.liga" unicode="le" horiz-adv-x="771" 
d="M511 213q37 0 69 11t53 26.5t40.5 41t30 44.5t24.5 47l-42 -183h-367q3 4 16.5 11.5t23.5 21t10 34.5v366q0 21 -10 34t-23.5 21t-16.5 12h367l33 -158l-6 9q-17 30 -26.5 44.5t-28 36t-36.5 31t-46.5 17t-64.5 7.5h-17v-208h67q21 0 34 16t21 37.5t12 25.5v-170
q-4 4 -10 18t-11 27t-17.5 23.5t-28.5 10.5h-67v-254h17zM469 13q36 0 64.5 7.5t46.5 17t36.5 31t28 36t27.5 43.5q4 7 6 10l-34 -158h-608q3 4 16.5 11.5t23.5 21t10 34.5v566q0 17 -6.5 29t-15 17.5l-17 11t-11.5 9.5h225q-3 -4 -16.5 -11.5t-23.5 -21t-10 -34.5v-620h258
z" />
    <glyph glyph-name="lh.liga" unicode="lh" horiz-adv-x="989" 
d="M903 67q0 -21 10 -34.5t23.5 -21t16.5 -11.5h-225q2 4 11 9.5t17 11t15 17.5t7 29v271h-284v-105q0 -21 10.5 -34t24 -21t15.5 -12h-225q3 4 16.5 12t23.5 21t10 34v400q0 14 -4 24t-10.5 16.5t-13.5 10.5t-13 8.5t-9 7.5h225q-2 -4 -15.5 -11.5t-24 -21t-10.5 -34.5
v-283h284v283q0 17 -7 29t-15 17.5t-17 11t-11 9.5h225q-3 -4 -12 -9.5t-17 -11t-14.5 -17.5t-6.5 -29v-566zM428 12q35 0 63.5 8t46.5 17.5t37 31t28.5 36t26.5 43.5q4 7 6 10l-33 -158h-567q3 4 16.5 11.5t23.5 21t10 34.5v566q0 17 -6.5 29t-15 17.5l-17 11t-11.5 9.5
h225q-3 -4 -16.5 -11.5t-23.5 -21t-10 -34.5v-621h217z" />
    <glyph glyph-name="li.liga" unicode="li" horiz-adv-x="589" 
d="M494 267q0 -21 10.5 -34.5t24 -21t15.5 -11.5h-225q3 4 16.5 11.5t23.5 21t10 34.5v366q0 17 -6.5 29t-14.5 17.5t-17 11t-12 9.5h225q-2 -4 -15.5 -11.5t-24 -21t-10.5 -34.5v-366zM336 13q36 0 64.5 7.5t46.5 17t36.5 31t28 36t26.5 43.5q2 3 2.5 4l1.5 3t2 3l-33 -158
h-475q3 4 16.5 11.5t23.5 21t10 34.5v566q0 17 -6.5 29t-15 17.5l-17 11t-11.5 9.5h225q-3 -4 -16.5 -11.5t-23.5 -21t-10 -34.5v-620h125z" />
    <glyph glyph-name="lk.liga" unicode="lk" horiz-adv-x="957" 
d="M869 67q12 -24 30.5 -37.5t34.5 -19.5t19 -10h-184q-25 51 -91 183q-1 3 -9.5 19.5t-13 25.5t-14.5 27.5t-17.5 30t-18 27.5t-20 25.5t-20.5 18t-21 12.5l-50 -66v-70q0 -21 10.5 -34t24 -21t15.5 -12h-225q3 4 16.5 12t23.5 21t10 34v400q0 17 -6.5 29t-14.5 17.5
t-17 11t-12 9.5h225q-2 -4 -15.5 -11.5t-24 -21t-10.5 -34.5v-308l233 308q9 12 13.5 21.5t3 16.5t-3 11t-6.5 10t-6 8h116q-3 -5 -21 -12t-41 -21t-38 -34l-189 -250q80 -5 142.5 -56t102.5 -127q52 -102 69 -134v1zM428 12q35 0 63.5 8t46.5 17.5t37 31t28.5 36t26.5 43.5
q1 3 2 4t2 3t2 3l-33 -158h-567q3 4 16.5 11.5t23.5 21t10 34.5v566q0 17 -6.5 29t-15 17.5l-17 11t-11.5 9.5h225q-3 -4 -16.5 -11.5t-23.5 -21t-10 -34.5v-621h217z" />
    <glyph glyph-name="ll.liga" unicode="ll" horiz-adv-x="719" 
d="M311 200q3 4 16.5 11.5t23.5 21t10 34.5v366q0 14 -4 24t-11 16.5t-13.5 10.5t-13 8.5t-8.5 7.5h225q-3 -4 -16.5 -11.5t-23.5 -21t-10 -34.5v-420q34 0 61 8.5t44 18t35.5 30.5t27.5 35t26 44l6 9l-33 -158h-342zM478 12q35 0 63.5 8t46.5 17.5t37 31t28.5 36t26.5 43.5
q4 7 6 10l-33 -158h-617q3 4 16.5 11.5t23.5 21t10 34.5v566q0 17 -6.5 29t-15 17.5l-17 11t-11.5 9.5h225q-3 -4 -16.5 -11.5t-23.5 -21t-10 -34.5v-621h267z" />
    <glyph glyph-name="lo.liga" unicode="lo" horiz-adv-x="858" 
d="M569 712q104 0 177 -75t73 -181q0 -52 -19.5 -99.5t-53 -81.5t-80 -54.5t-97.5 -20.5q-104 0 -177 75t-73 181t73 181t177 75zM569 212q29 0 49.5 13.5t32.5 34.5t19.5 54.5t9.5 66t2 76t-2 76t-9.5 65.5t-19.5 54.5t-32.5 34.5t-49.5 13t-49.5 -13t-32.5 -34.5
t-19 -54.5t-9.5 -65.5t-2.5 -76t2.5 -76t9.5 -66t19 -54.5t32.5 -34.5t49.5 -13.5zM536 12q100 0 153 63q18 20 55 83l-33 -158h-675q3 4 16.5 11.5t23.5 21t10 34.5v566q0 17 -6.5 29t-15 17.5l-17 11t-11.5 9.5h225q-3 -4 -16.5 -11.5t-23.5 -21t-10 -34.5v-621h325z" />
    <glyph glyph-name="lu.liga" unicode="lu" horiz-adv-x="846" 
d="M536 12q100 0 153 63q18 20 55 83l-33 -158h-675q3 4 16.5 11.5t23.5 21t10 34.5v566q0 17 -6.5 29t-15 17.5l-17 11t-11.5 9.5h225q-3 -4 -16.5 -11.5t-23.5 -21t-10 -34.5v-621h325zM706 700h112q-2 -4 -11 -9.5t-17 -11t-15 -17.5t-7 -29v-252q0 -120 -70 -159
q-39 -22 -103 -22q-41 0 -78.5 8t-72.5 26t-55.5 53t-20.5 82v264q0 21 -10.5 34.5t-24 21t-15.5 11.5h237q-3 -4 -16.5 -11.5t-23.5 -21t-10 -34.5v-252q0 -36 3.5 -61.5t13 -49t29 -37.5t49.5 -19q36 -5 69 7q11 4 20 9q67 38 67 151v252q0 17 -7 29t-15 17.5t-17 11
t-11 9.5z" />
    <glyph glyph-name="nn.liga" unicode="nn" horiz-adv-x="1209" 
d="M1061 700h112q-2 -4 -15.5 -11.5t-24 -21t-10.5 -34.5v-633h-12l-500 639v-639h-13l-500 639v-572q0 -21 10.5 -34.5t24 -21t15.5 -11.5h-112q3 4 16.5 11.5t23.5 21t10 34.5v566q0 21 -10 34.5t-23.5 21t-16.5 11.5h154l408 -509v442q0 8 -1 14q-3 16 -13 26t-21.5 16.5
t-14.5 10.5h155l408 -509v442q0 21 -10 34.5t-23.5 21t-16.5 11.5z" />
    <glyph glyph-name="oo.liga" unicode="oo" horiz-adv-x="1122" 
d="M727 712q96 0 177.5 -48.5t129 -132t47.5 -181.5t-47.5 -181.5t-129 -132.5t-177.5 -49q-89 0 -166 43q-78 -43 -167 -43q-96 0 -177.5 49t-129 132.5t-47.5 181.5t47.5 181.5t129 132t177.5 48.5q89 0 167 -42q77 42 166 42zM394 0q72 0 125 57q-68 50 -107 127t-39 166
t39 166t107 127q-53 57 -125 57q-51 0 -92.5 -28.5t-68.5 -77t-41.5 -111.5t-14.5 -133q0 -46 6.5 -90t19 -83t31 -71.5t42 -56t54 -36.5t64.5 -13zM560 117q51 96 51 233t-51 233q-50 -96 -50 -233t50 -233zM727 0q51 0 92.5 28.5t68.5 77t41.5 111.5t14.5 133
q0 94 -24.5 172.5t-75 128t-117.5 49.5q-72 0 -125 -57q68 -50 107 -127t39 -166t-39 -166t-107 -127q53 -57 125 -57z" />
    <glyph glyph-name="ra.liga" unicode="ra" horiz-adv-x="1102" 
d="M713 267q-8 -16 -4.5 -28.5t8 -17.5t13 -11.5t10.5 -9.5h-114q3 4 18.5 11.5t32 21t23.5 34.5l152 433h13l123 -433q6 -21 21 -34.5t30 -21t18 -11.5h-230q3 4 11 9.5t14 11t10.5 17.5t-0.5 29l-16 66h-110zM802 523l-62 -177h103zM890 19q118 0 196 88
q-32 -52 -97 -85.5t-148 -33.5q-64 0 -117.5 12.5t-95 35.5t-66.5 42.5t-55 47.5q-16 15 -77 84q-1 1 -4 5q-89 102 -182 102h-33v-250q0 -21 10 -34.5t23.5 -21t16.5 -11.5h-225q3 4 16.5 11.5t23.5 21t10 34.5v566q0 21 -10 34.5t-23.5 21t-16.5 11.5h225q141 0 212 -52
t71 -148q0 -69 -55 -118t-160 -61q81 -13 145.5 -41t116.5 -83q9 -10 27 -28q35 -36 52 -52.5t45.5 -39.5t51 -33t54.5 -17.5t69 -7.5zM211 329h50q82 0 116 39t34 132q0 96 -35 142t-115 46h-50v-359z" />
    <glyph glyph-name="re.liga" unicode="re" horiz-adv-x="1097" 
d="M641 200q2 4 16 11.5t24 21t10 34.5v366q0 21 -10 34t-24 21t-16 12h367l33 -158l-6 9q-18 30 -27 44.5t-28 36t-37 31t-46.5 17t-63.5 7.5h-17v-208h67q21 0 34 16t20.5 37.5t11.5 25.5v-170q-4 4 -11.5 25.5t-20.5 37.5t-34 16h-67v-254h17q37 0 68.5 11t52.5 26.5
t41 41t30.5 44.5t23.5 47l-41 -183h-367zM844 19q118 0 195 88q-20 -34 -54.5 -60t-84.5 -42.5t-106 -16.5q-63 0 -117 12.5t-95.5 35.5t-66.5 42.5t-54 47.5q-16 15 -78 84q-1 1 -9.5 10.5t-13.5 15.5t-16 17t-19.5 18.5t-20.5 17t-22 15t-21.5 9.5t-21.5 4h-28v-250
q0 -21 10 -34.5t23.5 -21t16.5 -11.5h-225q3 4 16.5 11.5t23.5 21t10 34.5v566q0 21 -10 34.5t-23.5 21t-16.5 11.5h225q141 0 212 -52t71 -148q0 -69 -55.5 -118t-161.5 -62q65 -11 114 -38.5t103 -84.5q9 -9 31 -31.5t29 -30t26 -25.5t27 -24t25 -19t28 -17.5t28 -12.5
t32 -10.5t34 -5t40 -2.5zM211 329h50q82 0 116 39t34 132q0 96 -35 142t-115 46h-50v-359z" />
    <glyph glyph-name="ri.liga" unicode="ri" horiz-adv-x="864" 
d="M778 267q0 -21 10 -34.5t23.5 -21t16.5 -11.5h-225q2 4 15.5 11.5t24 21t10.5 34.5v366q0 14 -4.5 24t-11 16.5t-13 10.5t-13 8.5t-8.5 7.5h225q-3 -4 -16.5 -11.5t-23.5 -21t-10 -34.5v-366zM683 67q28 -21 63 -34.5t56.5 -20.5t25.5 -12h-231l-299 318q-10 -1 -20 -1
h-67v-250q0 -21 10 -34.5t23.5 -21t16.5 -11.5h-225q3 4 16.5 11.5t23.5 21t10 34.5v566q0 21 -10 34.5t-23.5 21t-16.5 11.5h225q141 0 212 -52t71 -148q0 -70 -57 -119.5t-165 -60.5zM261 329q82 0 116 39t34 132q0 96 -35 142t-115 46h-50v-359h50z" />
    <glyph glyph-name="ro.liga" unicode="ro" horiz-adv-x="1163" 
d="M870.5 192q-103.5 0 -177 75t-73.5 181q0 52 20 99.5t53.5 81.5t79.5 54.5t97 20.5q104 0 177 -75t73 -181t-73 -181t-176.5 -75zM870 692q-28 0 -49 -13.5t-33 -34.5t-19 -54.5t-9.5 -66t-2.5 -76t2.5 -76t9.5 -65.5t19 -54.5t33 -34.5t49.5 -13t49 13t33 34.5
t19.5 54.5t9 65.5t2 76.5q0 30 -1 54.5t-4 50.5t-8 46t-14 38t-20.5 29.5t-28 18.5t-37.5 7zM891 19q43 0 80 11t61.5 29t35 27.5t18.5 18.5q1 1 1 2q-21 -34 -55.5 -60t-84 -42.5t-105.5 -16.5q-64 0 -117.5 12.5t-95 35.5t-66.5 42.5t-55 47.5q-16 15 -77 84q-1 1 -4 5
q-15 16 -27.5 28t-37 32t-54.5 31t-63 11h-33v-250q0 -21 10 -34.5t23.5 -21t16.5 -11.5h-225q3 4 16.5 11.5t23.5 21t10 34.5v566q0 21 -10 34.5t-23.5 21t-16.5 11.5h225q141 0 212 -52t71 -148q0 -69 -55 -118t-160 -61q81 -13 145.5 -41t116.5 -83q9 -9 30.5 -31.5
t29 -30t26 -25.5t27 -24t25.5 -19t28 -17.5t28 -12.5t32 -10.5t34 -5t39 -2.5zM212 329h50q82 0 116 39t34 132q0 96 -35 142t-115 46h-50v-359z" />
    <glyph glyph-name="rr.liga" unicode="rr" horiz-adv-x="1134" 
d="M594 200q3 4 16.5 11.5t23.5 21t10 34.5v366q0 14 -4 24t-10.5 16.5t-13.5 10.5t-13 8.5t-9 7.5h175q139 -2 202 -37t63 -120q0 -114 -182 -137q56 -11 95 -40t67 -83q5 -8 10 -18l-1 2q12 -24 31 -37.5t35 -19.5t18 -10h-181q-8 15 -33 67q-3 6 -12 25.5t-14.5 30
t-17 27.5t-21.5 26.5t-25.5 16.5t-33.5 7v-133q0 -21 10.5 -34.5t24 -21t15.5 -11.5h-225zM769 687v-274q69 3 100.5 32t31.5 98q0 77 -30 109t-102 35zM895 19q126 0 212 88q-22 -34 -59.5 -60t-91.5 -42.5t-114 -16.5q-70 0 -128.5 12.5t-103 35.5t-72 42.5t-59.5 47.5
q-17 15 -84 84q-1 1 -8.5 9t-12.5 13.5t-15 15t-18 16.5t-18.5 15.5t-20.5 14.5t-21 11.5t-21.5 8.5t-20.5 3h-28v-250q0 -21 10 -34.5t23.5 -21t16.5 -11.5h-225q3 4 16.5 11.5t23.5 21t10 34.5v566q0 21 -10 34.5t-23.5 21t-16.5 11.5h225q141 0 212 -52t71 -148
q0 -68 -54.5 -117t-158.5 -62q72 -12 126 -39t113 -85q10 -10 29 -28q38 -36 56.5 -52.5t50 -39.5t55.5 -33t59 -17.5t75 -7.5zM211 329h50q82 0 116 39t34 132q0 96 -35 142t-115 46h-50v-359z" />
    <glyph glyph-name="ru.liga" unicode="ru" horiz-adv-x="1137" 
d="M890 19q43 0 80 11t61.5 29t35 27.5t18.5 18.5q1 1 1 2q-21 -34 -55.5 -60t-84 -42.5t-105.5 -16.5q-64 0 -117.5 12.5t-95 35.5t-66.5 42.5t-55 47.5q-16 15 -77 84q-1 1 -4 5q-89 102 -182 102h-33v-250q0 -21 10 -34.5t23.5 -21t16.5 -11.5h-225q3 4 16.5 11.5
t23.5 21t10 34.5v566q0 21 -10 34.5t-23.5 21t-16.5 11.5h225q141 0 212 -52t71 -148q0 -69 -55 -118t-160 -61q81 -13 145.5 -41t116.5 -83q9 -9 30.5 -31.5t29 -30t26 -25.5t27 -24t25.5 -19t28 -17.5t28 -12.5t32 -10.5t34 -5t39 -2.5zM211 329h50q82 0 116 39t34 132
q0 96 -35 142t-115 46h-50v-359zM991 700h112q-2 -4 -11 -9.5t-17 -11t-15 -17.5t-7 -29v-252q0 -120 -70 -159q-39 -22 -103 -22q-41 0 -78.5 8t-72.5 26t-55.5 53t-20.5 82v264q0 21 -10 34.5t-24 21t-16 11.5h237q-3 -4 -16.5 -11.5t-23.5 -21t-10 -34.5v-252
q0 -36 3.5 -61.5t13 -49t29 -37.5t49.5 -19q36 -5 69 7q12 4 20 9q67 38 67 151v252q0 21 -10 34.5t-24 21t-16 11.5z" />
    <glyph glyph-name="ti.liga" unicode="ti" horiz-adv-x="756" 
d="M673 67q0 -21 10.5 -34.5t24 -21t15.5 -11.5h-225q3 4 12 9.5t17 11t14.5 17.5t6.5 29v333q0 21 -10 34t-23.5 21t-16.5 12h225q-2 -4 -15.5 -12t-24 -21t-10.5 -34v-333zM390 67q0 -21 10 -34.5t23.5 -21t16.5 -11.5h-225q3 4 16.5 11.5t23.5 21t10 34.5v621h-42
q-35 0 -63.5 -8t-46.5 -17.5t-37 -31t-28.5 -36t-26.5 -43.5q-4 -7 -6 -10l33 158h559l33 -158q-2 3 -6 10q-17 29 -26.5 43.5t-28.5 36t-37 31t-46.5 17t-63.5 7.5h-42v-620z" />
    <glyph glyph-name="tt.liga" unicode="tt" horiz-adv-x="1014" 
d="M790 687l-42 1v-621q0 -21 10.5 -34.5t24 -21t15.5 -11.5h-225q3 4 12 9.5t17 11t14.5 17.5t6.5 29v621h-233v-621q0 -21 10 -34.5t23.5 -21t16.5 -11.5h-225q3 4 16.5 11.5t23.5 21t10 34.5v621h-42q-35 0 -63.5 -8t-46.5 -17.5t-37 -31t-28.5 -36t-26.5 -43.5
q-4 -7 -6 -10l33 158h917l33 -158q-2 3 -6 10q-17 29 -26.5 43.5t-28 36t-36.5 31t-46.5 17t-64.5 7.5z" />
    <glyph glyph-name="tu.liga" unicode="tu" horiz-adv-x="1105" 
d="M961 700h112q-2 -4 -11 -9.5t-17 -11t-15 -17.5t-7 -29v-393q0 -124 -60 -188.5t-156 -64.5q-49 0 -86.5 5t-78 20.5t-67 42t-43.5 73.5t-17 112v293q0 21 -10 34.5t-23.5 21t-16.5 11.5h225q-3 -4 -16.5 -11.5t-23.5 -21t-10 -34.5v-315q0 -53 8 -91.5t26.5 -68
t51.5 -44t81 -14.5q39 0 74 12.5t65 39.5t47.5 75t17.5 113v393q0 17 -7 29t-15 17.5t-17 11t-11 9.5zM390 67q0 -21 10 -34.5t23.5 -21t16.5 -11.5h-225q3 4 16.5 11.5t23.5 21t10 34.5v621h-42q-35 0 -63.5 -8t-46.5 -17.5t-37 -31t-28.5 -36t-26.5 -43.5q-4 -7 -6 -10
l33 158h759l33 -158q-2 3 -6 10q-17 29 -26.5 43.5t-28.5 36t-37 31t-46.5 17.5t-63.5 8h-242v-621z" />
    <glyph glyph-name="ty.liga" unicode="ty" horiz-adv-x="1064" 
d="M390 67q0 -21 10 -34.5t23.5 -21t16.5 -11.5h-225q3 4 11.5 9.5l17 11t15 17.5t6.5 29v621h-42q-35 0 -63.5 -8t-46.5 -17.5t-37 -31t-28.5 -36t-26.5 -43.5q-4 -7 -6 -10l33 158h734l33 -158q-2 3 -6 10q-17 29 -26.5 43.5t-28.5 36t-37 31t-46.5 17t-63.5 7.5h-217
v-620zM949 700h115q-3 -4 -14 -9.5t-23.5 -11t-27 -17.5t-24.5 -29l-177 -300v-266q0 -21 10 -34.5t23.5 -21t16.5 -11.5h-225q2 4 11 9.5t17 11t15 17.5t7 29v266l-119 200q-11 20 -31.5 33.5t-37.5 21t-20 12.5h231q-2 -2 -9 -9.5t-10 -13t-2.5 -17.5t9.5 -27l106 -187
l169 287q9 16 10 27.5t-2 17t-10 12.5t-8 10z" />
    <glyph glyph-name=".notdef" horiz-adv-x="527" 
d="M50 700h427v-700h-427v700zM78 680l185 -309l186 309h-371zM251 350l-180 300v-601zM264 329l-185 -308h370zM276 350l181 -303v605z" />
    <glyph glyph-name=".null" horiz-adv-x="0" 
 />
    <glyph glyph-name=".null" horiz-adv-x="0" 
 />
    <glyph glyph-name="nonmarkingreturn" horiz-adv-x="333" 
 />
    <glyph glyph-name="LF" unicode="&#xa;" horiz-adv-x="0" 
 />
    <glyph glyph-name="controlCR" unicode="&#xd;" horiz-adv-x="0" 
 />
    <glyph glyph-name="space" unicode=" " horiz-adv-x="348" 
 />
    <glyph glyph-name="exclam" unicode="!" horiz-adv-x="252" 
d="M125.5 0q-20.5 0 -35 14.5t-14.5 35.5t14.5 35.5t35 14.5t35.5 -14.5t15 -35.5t-15 -35.5t-35.5 -14.5zM192 629v0v-9l-25 -212l-36 -241h-10l-37 241l-25 213v8q0 29 19.5 50t47 21t47 -21t19.5 -50z" />
    <glyph glyph-name="quotedbl" unicode="&#x22;" horiz-adv-x="210" 
d="M53 717l65 7q-40 -94 -58 -116l-36 -7q10 27 19.5 66t9.5 50zM132 717l66 7q-40 -94 -58 -116l-36 -7q10 27 19 66t9 50z" />
    <glyph glyph-name="quotedbl" unicode="&#x201c;" horiz-adv-x="210" 
d="M53 717l65 7q-40 -94 -58 -116l-36 -7q10 27 19.5 66t9.5 50zM132 717l66 7q-40 -94 -58 -116l-36 -7q10 27 19 66t9 50z" />
    <glyph glyph-name="numbersign" unicode="#" horiz-adv-x="398" 
d="M356 298h-58l-34 -108h58l-5 -17h-58l-28 -90h-18l28 90h-129l-28 -90h-18l28 90h-58l5 17h58l34 108h-58l6 17h58l28 89h18l-28 -89h128l29 89h18l-28 -89h58zM246 190l34 108h-128l-35 -108h129z" />
    <glyph glyph-name="dollar" unicode="$" horiz-adv-x="490" 
d="M253 414q3 -2 9 -4q24 -11 36.5 -17t34.5 -17.5t34 -21t27.5 -25t24 -31t14 -36.5t5.5 -44q0 -41 -16 -72.5t-43 -49.5t-59 -27.5t-67 -10.5v-58h-14v58q-73 1 -126 36.5t-59 97.5q13 -41 46 -67.5t68 -36t71 -8.5v214q-22 10 -27 12.5l-26 13t-27.5 15t-23.5 16
t-23.5 20t-18 22t-16 27t-9 30.5t-4.5 36q-2 50 25.5 87t66.5 53t83 16v58h14v-59q62 -5 98.5 -45t35.5 -88q-12 49 -42.5 78.5t-73.5 37.5q-9 2 -18 2v-212zM239 420v207q-31 -1 -55.5 -15.5t-37.5 -38.5t-11 -52q2 -34 28.5 -56t75.5 -45zM263 81q37 5 64 28.5t27 68.5
q1 38 -25 62t-76 48v-208q6 1 10 1z" />
    <glyph glyph-name="percent" unicode="%" horiz-adv-x="473" 
d="M346 700h17l-237 -700h-17l227 670q-55 -48 -139 -48h-2.5h-2.5q16 -15 22 -41.5t0 -58.5q-6 -31 -22.5 -57.5t-38.5 -42t-45 -15.5q-34 0 -51 33.5t-7.5 81t40.5 81.5t65 34q1 0 2.5 -0.5l1.5 -0.5q39 -2 68 1.5t61 18.5t58 44zM159.5 522q8.5 42 6.5 72t-13.5 30
t-26 -30t-23 -72t-6.5 -72t13.5 -30t26 30t23 72zM364 293q34 0 51 -33.5t8 -81.5q-7 -31 -23 -57.5t-38.5 -42t-44.5 -15.5q-34 0 -51.5 34t-7.5 81.5t41 81t65 33.5zM368.5 178q8.5 42 6.5 72t-13.5 30t-26 -30t-23 -72t-6.5 -72t13.5 -30t26 30t23 72z" />
    <glyph glyph-name="ampersand" unicode="&#x26;" horiz-adv-x="781" 
d="M564 111q97 -97 204 -111q-161 -6 -258 44v0l-1 0.5l-1 0.5q-70 -57 -179 -57q-230 0 -274 163q-10 43 -3 81t29 70.5t50 55.5t60 37q-4 5 -5 6q-25 33 -36.5 74.5t-5.5 82.5t26 76t63 56.5t101 21.5q71 0 145 -41q23 -14 33 21v-209q-7 35 -20 70t-33 69.5t-51 56
t-67 21.5q-105 0 -119 -94q-1 -13 -2 -21.5t2 -20t4.5 -18.5t6 -16.5t7.5 -14.5t8 -12.5t7.5 -10.5t7 -8.5t5.5 -6.5q75 -98 210 -266q53 -66 74 -89q12 24 19 53q18 69 0 139v1l-1 4q-6 16 -27 27.5t-22 13.5h117q-1 -3 -10 -9t-14.5 -15t-4.5 -23q7 -116 -45 -202zM335 16
q98 -9 160 36q-69 40 -130 118q-105 133 -166 214q-27 -26 -36.5 -69t-6 -79t14.5 -72q16 -57 60.5 -100t103.5 -48z" />
    <glyph glyph-name="quotesingle" unicode="'" horiz-adv-x="131" 
d="M53 717l65 7q-40 -94 -58 -116l-36 -7q10 27 19.5 66t9.5 50z" />
    <glyph glyph-name="quotesingle" unicode="&#x2018;" horiz-adv-x="131" 
d="M53 717l65 7q-40 -94 -58 -116l-36 -7q10 27 19.5 66t9.5 50z" />
    <glyph glyph-name="parenleft" unicode="(" horiz-adv-x="310" 
d="M165 350q1 -165 32.5 -248.5t92.5 -114.5q-44 10 -88.5 43t-77.5 82q-33 48 -50 111t-17 127t17 127t50 111q16 24 36 45t41.5 37t44 27t44.5 15q-40 -20 -66.5 -59.5t-42 -115t-16.5 -187.5z" />
    <glyph glyph-name="parenright" unicode=")" horiz-adv-x="310" 
d="M185 588q22 -32 37.5 -72.5t22.5 -82t7 -83.5q0 -64 -17 -127t-50 -111q-33 -49 -77.5 -82t-88.5 -42q62 30 93.5 113.5t31.5 248.5t-31.5 248.5t-93.5 113.5q44 -9 88.5 -42t77.5 -82z" />
    <glyph glyph-name="asterisk" unicode="*" horiz-adv-x="155" 
d="M126 688q12 -6 6.5 -18.5t-18.5 -6.5l-30 21l6 -37q0 -6 -4 -10t-10 -4q-4 0 -7 2t-5 5t-2 7l6 34l-26 -23q-11 -7 -18.5 4.5t3.5 18.5l32 14l-33 9q-13 6 -7 18.5t19 6.5l30 -21l-6 36q0 6 4 10t10 4q4 0 7 -1.5t5 -5t2 -7.5l-6 -33l25 23q12 7 19.5 -4.5t-4.5 -19.5
l-31 -13z" />
    <glyph glyph-name="plus" unicode="+" horiz-adv-x="258" 
d="M137 200h92v-17h-92v-91h-16v91h-92v17h92v92h16v-92z" />
    <glyph glyph-name="comma" unicode="," horiz-adv-x="140" 
d="M42 84l75 8q-46 -109 -66 -134l-42 -8q12 31 22.5 76t10.5 58z" />
    <glyph glyph-name="hyphen" unicode="-" horiz-adv-x="187" 
d="M177 221h-167v17h167v-17z" />
    <glyph glyph-name="period" unicode="." horiz-adv-x="152" 
d="M76 0q-21 0 -35.5 14.5t-14.5 35.5t14.5 35.5t35.5 14.5t35.5 -14.5t14.5 -35.5t-14.5 -35.5t-35.5 -14.5z" />
    <glyph glyph-name="slash" unicode="/" horiz-adv-x="324" 
d="M272 700h17l-236 -700h-18z" />
    <glyph glyph-name="zero" unicode="0" horiz-adv-x="616" 
d="M308 712q68 0 125.5 -48.5t91 -132t33.5 -181.5t-33.5 -181.5t-91 -132t-125.5 -48.5t-125.5 48.5t-91 132t-33.5 181.5t33.5 181.5t91 132t125.5 48.5zM308 0q35 0 60 27.5t37.5 79t18 110t5.5 133.5q0 59 -3.5 107.5t-11.5 95t-21 78t-35 50.5t-50 19
q-36 0 -60.5 -27.5t-37 -79t-18 -110t-5.5 -133.5q0 -59 3 -107.5t11.5 -95t21.5 -78t34.5 -50.5t50.5 -19z" />
    <glyph glyph-name="one" unicode="1" horiz-adv-x="334" 
d="M60 0q2 4 15.5 11.5t24 21t10.5 34.5v483q0 12 -0.5 18.5t-4 17t-10 15t-20 4.5t-32.5 -8l192 103v-633q0 -21 10 -34.5t23.5 -21t16.5 -11.5h-225z" />
    <glyph glyph-name="two" unicode="2" horiz-adv-x="557" 
d="M311 314q-72 -33 -122 -75t-88 -114h299q17 0 29 6.5t17.5 15l11 17t9.5 11.5l25 -175h-450q19 71 46.5 127t57 90.5t61 62t59.5 49t51 44.5t38 54.5t17 72.5q6 102 -77 144q-19 9 -47 11.5t-61.5 -3t-66 -32t-51.5 -70.5q10 44 36 77t59.5 51t67 26.5t66.5 8.5
q27 0 54.5 -6t55 -21t47.5 -36.5t32.5 -57t11.5 -78.5q-1 -25 -7.5 -46t-15 -37t-25.5 -32t-28.5 -25.5t-35.5 -22.5t-36.5 -19t-39.5 -18z" />
    <glyph glyph-name="three" unicode="3" horiz-adv-x="541" 
d="M274 381q29 -2 56 -8.5t56.5 -21.5t51 -36t35.5 -56t14 -78q0 -49 -22.5 -88t-60 -61t-80 -33t-87.5 -11q-64 0 -117 30.5t-80 82.5h80q31 -101 117 -101q35 0 60.5 17t39 45t19.5 57.5t6 61.5q0 43 -14 76.5t-36 53.5t-52 33t-58 18t-58 5q45 12 75 25t56.5 34t39 52.5
t12.5 74.5q0 61 -30 95t-82 34q-42 0 -78 -17t-70 -66q19 54 69 84t104 30q18 0 38 -3.5t42.5 -10.5t42.5 -19.5t36.5 -30t26.5 -43.5t10 -57q0 -65 -46.5 -107.5t-115.5 -60.5z" />
    <glyph glyph-name="four" unicode="4" horiz-adv-x="535" 
d="M260 0q3 4 16.5 11.5t23.5 21t10 34.5v166h-283l375 467h33v-633q0 -21 10.5 -34.5t24 -21t15.5 -11.5h-225zM53 246h257v321z" />
    <glyph glyph-name="five" unicode="5" horiz-adv-x="544" 
d="M103 429q52 14 105.5 15t104 -17.5t89.5 -48t63 -75t24 -98.5q0 -54 -23 -97t-59.5 -68.5t-80 -38.5t-87.5 -13q-64 0 -117 30.5t-80 82.5h80q31 -101 117 -101q36 0 62 20.5t39 53.5t18.5 65t5.5 66q0 238 -277 212l70 283h297l-25 -175q-4 3 -9.5 11.5l-11 17t-17.5 15
t-29 6.5h-223z" />
    <glyph glyph-name="six" unicode="6" horiz-adv-x="536" 
d="M179 287q16 75 86 94q69 19 137 -25q80 -52 87 -151q1 -8 1 -16q0 -83 -58.5 -142t-152.5 -59q-43 0 -82 16t-71.5 48t-52 85.5t-19.5 121.5q0 69 21.5 134.5t56.5 115t79 90t89 66t87 35.5q-90 -36 -146.5 -140.5t-61.5 -272.5zM279 0q48 0 69.5 46.5t21.5 141.5
q0 80 -28.5 122.5t-69.5 42.5q-29 0 -51.5 -13.5t-41.5 -52.5v-29q0 -258 100 -258z" />
    <glyph glyph-name="seven" unicode="7" horiz-adv-x="491" 
d="M465 700v-25q-32 -42 -59 -85.5t-46.5 -80t-35 -79.5t-25.5 -73t-17 -72t-10.5 -64.5t-5 -63.5t-2 -56t0 -54.5t0.5 -46.5h-133q0 64 11.5 123.5t29 104.5t45.5 94.5t52 84t58 84.5t56 84h-253q-14 0 -24 -4t-16.5 -11t-10.5 -13.5t-8.5 -13t-7.5 -8.5l-25 175h426z" />
    <glyph glyph-name="eight" unicode="8" horiz-adv-x="592" 
d="M380 396q36 -17 61 -33t49.5 -40t37 -55.5t12.5 -71.5q0 -95 -68.5 -151.5t-176.5 -56.5q-102 0 -163 45t-70 130q-7 66 24.5 126t86.5 82q-97 64 -103 149q-3 42 9.5 75.5t35 55t53.5 36t63 20t65 5.5q79 0 126 -43t47 -122q0 -102 -89 -151zM296 700q-50 0 -87.5 -31.5
t-34.5 -93.5q1 -15 4.5 -28.5t12 -26t15 -21.5t21.5 -20t23 -17t28 -16l28 -14t31 -15t30 -14q23 12 40.5 28.5t28 35.5t15.5 39t5 41q0 37 -11.5 65.5t-32.5 48t-50.5 29.5t-65.5 10zM295 0q67 0 107.5 33t38.5 96q-1 36 -16.5 65t-45.5 52.5t-57 40t-70 39t-66 36.5
q-49 -13 -83.5 -70t-27.5 -129q7 -80 65.5 -121.5t154.5 -41.5z" />
    <glyph glyph-name="nine" unicode="9" horiz-adv-x="536" 
d="M257 712q43 0 82 -16t71.5 -48t52 -85.5t19.5 -121.5q0 -69 -21.5 -134.5t-56.5 -115t-79 -90t-89 -66t-87 -35.5q90 36 146.5 140.5t60.5 272.5q-15 -75 -85 -94q-69 -19 -137 25q-80 52 -87 151q-1 8 -1 16q0 83 58.5 142t152.5 59zM356 413q1 16 1 29q0 258 -100 258
q-48 0 -69.5 -46.5t-21.5 -141.5q0 -80 28.5 -122.5t69.5 -42.5q29 0 51.5 13.5t40.5 52.5z" />
    <glyph glyph-name="colon" unicode=":" horiz-adv-x="174" 
d="M87 284q-21 0 -35.5 14.5t-14.5 35t14.5 35.5t35.5 15t35.5 -15t14.5 -35.5t-14.5 -35t-35.5 -14.5zM87 75q-21 0 -35.5 14.5t-14.5 35.5t14.5 35.5t35.5 14.5t35.5 -14.5t14.5 -35.5t-14.5 -35.5t-35.5 -14.5z" />
    <glyph glyph-name="semicolon" unicode=";" horiz-adv-x="190" 
d="M102.5 284q-20.5 0 -35 14.5t-14.5 35t14.5 35.5t35 15t35.5 -15t15 -35.5t-15 -35t-35.5 -14.5zM36 33q8 21 16 51t12.5 53t4.5 30l75 8q-46 -108 -66 -133z" />
    <glyph glyph-name="less" unicode="&#x3c;" horiz-adv-x="218" 
d="M183 333l-81 -133l81 -133h-8l-142 133l142 133h8z" />
    <glyph glyph-name="equal" unicode="=" horiz-adv-x="264" 
d="M248 117h-233v16h233v-16zM248 250h-233v17h233v-17z" />
    <glyph glyph-name="greater" unicode="&#x3e;" horiz-adv-x="218" 
d="M43 333l142 -133l-142 -133h-8l81 133l-81 133h8z" />
    <glyph glyph-name="question" unicode="?" horiz-adv-x="416" 
d="M168 0q-21 0 -35.5 14.5t-14.5 35.5t14.5 35.5t35.5 14.5t35.5 -14.5t14.5 -35.5t-14.5 -35.5t-35.5 -14.5zM181 712q33 0 65 -9.5t61 -30t47 -56.5t18 -84q0 -37 -18 -70.5t-38 -52t-51.5 -44t-41.5 -34.5q-35 -35 -50.5 -80t-0.5 -90l-8 -7q-5 10 -9 21t-6.5 24t-3 27
t1.5 29.5t6 31t11 32t17 31.5q2 4 7 12q20 32 29 48.5t19 44.5t15 60q5 17 3 41.5t-7 47t-22 42t-44 26.5q-45 13 -87.5 -13.5t-56.5 -79.5q2 56 44 94.5t100 38.5z" />
    <glyph glyph-name="at" unicode="@" horiz-adv-x="697" 
d="M404 667q117 -5 181.5 -70t60.5 -176q-2 -57 -24 -107.5t-53.5 -81.5t-67.5 -44q-9 -4 -20 -6.5t-27.5 -1.5t-28.5 7.5t-20 25.5t-6 48q-10 -22 -24 -40t-36 -32t-47 -14q-50 0 -75.5 37t-20.5 96q3 39 12.5 72t22 55t29 38.5t32 25.5t32 14.5t27.5 7t19 0.5
q39 -1 58 -32q3 27 3 29l88 16q0 -1 -8.5 -68t-17 -135t-8.5 -69q-1 -11 -1.5 -15.5t-0.5 -16t2 -15.5t6 -9t11.5 -3.5t18.5 8.5q46 28 78 84t35 127q1 25 -2 49.5t-16.5 58.5t-37 59t-69 44t-106.5 21q-98 3 -184 -56q-30 -20 -58.5 -52t-52 -74t-32.5 -84
q-16 -71 -8 -135.5t38 -110.5q45 -69 134 -87q32 -6 62 -7.5t51.5 0.5t41.5 7t32 10.5t22 11.5t13.5 8.5t4.5 3.5l9 -9q-2 -1 -4 -3t-9 -7t-15.5 -9.5t-21.5 -9.5t-27.5 -8.5t-34 -6t-40.5 -2.5q-41 0 -87 9q-94 19 -142 92q-31 48 -39 115t8 141q14 66 57 125.5t91 92.5
q89 61 192 58zM411 358q6 50 13 107q-12 40 -54 39q-5 0 -11.5 -1.5t-21 -13.5t-26 -32t-21.5 -62.5t-14 -100.5q-1 -28 3 -48t11.5 -29.5t17 -13.5t17.5 -2.5t14 4.5q20 14 34 37t22.5 50t15.5 66z" />
    <glyph glyph-name="A" unicode="A" horiz-adv-x="659" 
d="M577 67q7 -16 19 -28t23.5 -17.5t22 -11.5t13.5 -10h-233q2 3 9.5 10t11.5 12t6.5 17.5t-5.5 27.5l-61 145h-241l-51 -145q-7 -16 -4 -28.5t7.5 -17.5t12.5 -11.5t10 -9.5h-112q3 4 18.5 11.5t31.5 21t23 34.5l223 633h12zM147 225h231l-125 302z" />
    <glyph glyph-name="B" unicode="B" horiz-adv-x="599" 
d="M347 368q107 -10 157.5 -55.5t50.5 -127.5q0 -185 -275 -185h-242q3 4 11.5 9.5l17 11t15 17.5t6.5 29v566q0 21 -10 34.5t-23.5 21t-16.5 11.5h208q276 0 276 -171q0 -41 -22 -74t-61 -54.5t-92 -32.5zM213 687v-316h34q84 0 119.5 38.5t35.5 119.5q0 77 -36 117.5
t-120 40.5h-33zM280 12q76 0 110.5 48t34.5 125q0 173 -162 173h-50v-346h67z" />
    <glyph glyph-name="C" unicode="C" horiz-adv-x="628" 
d="M398 17q116 -9 200 77q-27 -49 -82 -77.5t-122 -28.5q-96 0 -177.5 48.5t-129 132t-47.5 181.5t47.5 181.5t129 132t177.5 48.5q64 0 138 -41q8 -6 15 -3t11 9t7 15v-209q-7 35 -20 70t-33 69.5t-51 56t-67 21.5q-67 0 -117.5 -49.5t-75 -128t-24.5 -172.5q0 -93 26 -166
t76.5 -117.5t118.5 -49.5z" />
    <glyph glyph-name="D" unicode="D" horiz-adv-x="711" 
d="M317 700q100 0 181.5 -47t127 -127t45.5 -176t-45.5 -176t-127 -127t-181.5 -47h-279q3 4 11.5 9.5l17 11t15 17.5t6.5 29v566q0 17 -6.5 29t-15 17.5l-17 11t-11.5 9.5h279zM317 13q43 0 78.5 17.5t61 49t43 74.5t26 92.5t8.5 103.5q0 92 -23 167t-73.5 123t-120.5 48
h-104v-675h104z" />
    <glyph glyph-name="E" unicode="E" horiz-adv-x="570" 
d="M321 12q38 0 69.5 11.5t52.5 27t40.5 41t30.5 44.5t24 47l-42 -183h-458q3 4 16.5 11.5t23.5 21t10 34.5v566q0 17 -6.5 29t-15 17.5l-17 11t-11.5 9.5h442l33 -158q-2 3 -6 10q-17 29 -26.5 43.5t-28.5 36t-37 31t-46.5 17t-63.5 7.5h-92v-316h109q20 0 33.5 16t21 37.5
t11.5 25.5v-171q-4 4 -9.5 18.5t-11 27t-17.5 23t-29 10.5h-108v-346h108z" />
    <glyph glyph-name="F" unicode="F" horiz-adv-x="529" 
d="M38 700h442l33 -158q-2 3 -6 10q-17 29 -26.5 43.5t-28.5 36t-37 31t-46.5 17t-63.5 7.5h-92v-316h109q20 0 33.5 16t21 37.5t11.5 25.5v-171q-4 4 -9.5 18.5t-11 27t-17.5 23t-29 10.5h-108v-291q0 -21 10 -34.5t23.5 -21t16.5 -11.5h-225q3 4 16.5 11.5t23.5 21
t10 34.5v566q0 17 -6.5 29t-15 17.5l-17 11t-11.5 9.5z" />
    <glyph glyph-name="G" unicode="G" horiz-adv-x="684" 
d="M661 254q-3 -4 -16.5 -11.5t-23.5 -20.5t-10 -35v-191q-4 14 -12.5 22t-17.5 9.5t-22.5 -1t-21.5 -5.5t-20.5 -9t-13.5 -6q-51 -23 -109 -23q-96 0 -177.5 48.5t-129 132t-47.5 182t47.5 182t129 132t177.5 48.5q64 0 138 -41q11 -8 20 -1t13 21v-208q-7 35 -20 70
t-33 69.5t-51 56t-67 21.5q-51 0 -92.5 -28.5t-68.5 -77t-41.5 -111.5t-14.5 -133t14.5 -133t41.5 -111.5t68.5 -77t92.5 -28.5q17 0 34 2q58 7 58 81v140q-7 11 -23.5 21.5t-18.5 13.5h217z" />
    <glyph glyph-name="H" unicode="H" horiz-adv-x="710" 
d="M671 700q-2 -4 -11 -9.5t-17 -11t-15 -17.5t-7 -29v-566q0 -21 10.5 -34.5t24 -21t15.5 -11.5h-225q3 4 16.5 11.5t23.5 21t10 34.5v271h-283v-271q0 -21 10 -34.5t23.5 -21t16.5 -11.5h-225q3 4 16.5 11.5t23.5 21t10 34.5v566q0 17 -6.5 29t-15 17.5l-17 11t-11.5 9.5
h225q-3 -4 -16.5 -11.5t-23.5 -21t-10 -34.5v-283h283v283q0 14 -4 24t-10.5 16.5t-13.5 10.5t-13 8.5t-9 7.5h225z" />
    <glyph glyph-name="I" unicode="I" horiz-adv-x="301" 
d="M263 700q-3 -4 -16.5 -11.5t-23.5 -21t-10 -34.5v-566q0 -21 10 -34.5t23.5 -21t16.5 -11.5h-225q3 4 11.5 9.5l17 11t15 17.5t6.5 29v566q0 21 -10 34.5t-23.5 21t-16.5 11.5h225z" />
    <glyph glyph-name="J" unicode="J" horiz-adv-x="390" 
d="M133 700h225q-3 -4 -16.5 -11.5t-23.5 -21t-10 -34.5v-443q-1 -92 -48.5 -147t-118.5 -55q-99 0 -134 62l75 50q10 -17 13.5 -45t11.5 -43t34 -15q25 0 46 15.5t27 44t-18 69.5q-13 22 -13 66v441q0 21 -10 34.5t-24 21t-16 11.5z" />
    <glyph glyph-name="K" unicode="K" horiz-adv-x="684" 
d="M596 67q12 -24 30.5 -37.5t34.5 -19.5t19 -10h-184q-25 51 -91 183q-1 3 -9.5 19.5t-13 25.5t-14.5 27.5t-17.5 30t-18 27.5t-20 25.5t-20.5 18t-21 12.5l-58 -77v-225q0 -21 10 -34.5t23.5 -21t16.5 -11.5h-225q3 4 16.5 11.5t23.5 21t10 34.5v566q0 17 -6.5 29
t-15 17.5l-17 11t-11.5 9.5h225q-3 -4 -11.5 -9.5l-17 -11t-15 -17.5t-6.5 -29v-319l241 319q9 12 13.5 21.5t3 16.5t-3 11t-6.5 10t-6 8h116q-3 -5 -21 -12t-41 -21t-38 -34l-189 -250q80 -5 142.5 -56t101.5 -127q54 -104 70 -134v1z" />
    <glyph glyph-name="L" unicode="L" horiz-adv-x="537" 
d="M313 12q36 0 64.5 8t46.5 17.5t36.5 31t28 36t27.5 43.5q3 7 5 10l-33 -158h-450q3 4 16.5 11.5t23.5 21t10 34.5v566q0 17 -6.5 29t-15 17.5l-17 11t-11.5 9.5h225q-3 -4 -16.5 -11.5t-23.5 -21t-10 -34.5v-621h100z" />
    <glyph glyph-name="M" unicode="M" horiz-adv-x="864" 
d="M825 700q-2 -4 -11 -9.5t-17 -11t-14.5 -17.5t-6.5 -29v-566q0 -21 10 -34.5t23.5 -21t16.5 -11.5h-226q3 4 16.5 11.5t23.5 21t10 34.5v601l-262 -668h-12l-276 624v-557q0 -21 10.5 -34.5t24 -21t15.5 -11.5h-112q3 4 16.5 11.5t23.5 21t10 34.5v566q0 17 -6.5 29
t-15 17.5l-17 11t-11.5 9.5h154l246 -542l212 542h175z" />
    <glyph glyph-name="N" unicode="N" horiz-adv-x="698" 
d="M550 700h113q-3 -4 -11.5 -9.5l-17 -11t-15 -17.5t-6.5 -29v-633h-13l-500 639v-572q0 -21 10.5 -34.5t24 -21t15.5 -11.5h-112q3 4 16.5 11.5t23.5 21t10 34.5v566q0 21 -10 34.5t-23.5 21t-16.5 11.5h154l408 -509v442q0 17 -6.5 29t-14.5 17.5t-17 11t-12 9.5z" />
    <glyph glyph-name="O" unicode="O" 
d="M394 712q72 0 137.5 -28.5t113 -77t75.5 -115.5t28 -141q0 -98 -47.5 -181.5t-129 -132.5t-177.5 -49t-177.5 49t-129 132.5t-47.5 181.5t47.5 181.5t129 132t177.5 48.5zM394 0q67 0 117 49.5t75 128t25 172.5q0 70 -15 133t-41.5 111.5t-68 77t-92.5 28.5
q-67 0 -117.5 -49.5t-75 -128t-24.5 -172.5q0 -70 14.5 -133t41.5 -111.5t68.5 -77t92.5 -28.5z" />
    <glyph glyph-name="P" unicode="P" horiz-adv-x="567" 
d="M256 700q137 0 210.5 -60t73.5 -146q0 -41 -18 -78.5t-52 -67t-89 -47.5t-125 -18h-43v-216q0 -21 10 -34.5t23.5 -21t16.5 -11.5h-225q3 4 11.5 9.5l17 11t15 17.5t6.5 29v566q0 21 -10 34.5t-23.5 21t-16.5 11.5h218zM256 296q42 0 72.5 16t47 45t23.5 62.5t7 74.5
q0 193 -150 193h-43v-391h43z" />
    <glyph glyph-name="Q" unicode="Q" 
d="M483 -1h-1q-8 -2 -31.5 -8t-39.5 -10t-39.5 -12t-43.5 -17q105 37 178 -12q3 -3 18.5 -13.5t20.5 -13.5t19.5 -11.5t21.5 -11t20 -6.5t22 -3.5t20.5 3.5t22.5 9q-37 -37 -86 -37.5t-107 37.5q-19 12 -26.5 17t-34 16.5t-47 13.5t-52 -3t-62.5 -21q13 8 27 16l1 1
q61 35 107 55q-95 0 -176 49t-128 132t-47 181q0 74 28 141t75.5 115.5t113 77t137.5 28.5q96 0 177.5 -48.5t129 -132t47.5 -181.5q0 -124 -73.5 -221t-187.5 -129q-1 0 -2.5 -0.5zM177 350q0 -94 24.5 -172.5t75 -128t117.5 -49.5t117 49.5t75 128t25 172.5q0 70 -15 133
t-41.5 111.5t-68 77t-92.5 28.5t-92.5 -28.5t-68.5 -77t-41.5 -111.5t-14.5 -133z" />
    <glyph glyph-name="R" unicode="R" horiz-adv-x="661" 
d="M571 67q12 -24 30.5 -37.5t34.5 -19.5t19 -10h-184q-25 51 -91 183q-2 3 -5 9q-12 26 -21 41t-25.5 38t-37.5 34.5t-45 11.5h-33v-250q0 -21 10 -34.5t23.5 -21t16.5 -11.5h-225q3 4 16.5 11.5t23.5 21t10 34.5v566q0 21 -10 34.5t-23.5 21t-16.5 11.5h225q141 0 212 -52
t71 -148q0 -68 -53.5 -116.5t-156.5 -62.5q114 -22 166 -121q52 -102 69 -134v1zM213 329h50q82 0 116 39t34 132q0 96 -35 142t-115 46h-50v-359z" />
    <glyph glyph-name="S" unicode="S" horiz-adv-x="619" 
d="M183 575q3 -37 26 -66t58 -48t77 -37t83.5 -37.5t76 -43.5t55.5 -61.5t21 -85.5q0 -95 -72.5 -151.5t-187.5 -56.5q-116 0 -200 50q-20 12 -34 1t-20 -31l-19 204q10 -24 21 -46t35 -54.5t51.5 -55.5t71.5 -39.5t94 -16.5q71 0 114 33t41 96q-1 35 -19 64.5t-46.5 50
t-65.5 41t-75 36.5t-74.5 37t-66 42.5t-48 52.5t-21.5 67q-2 40 12.5 73t39.5 54.5t58.5 36.5t68.5 21.5t69 6.5q90 0 163 -49q13 -7 21 -2t12 14l3 10l12 -183q-9 36 -25.5 68t-41.5 62.5t-62 49t-82 18.5q-52 0 -89.5 -31.5t-34.5 -93.5z" />
    <glyph glyph-name="T" unicode="T" horiz-adv-x="655" 
d="M48 700h559l33 -158q-2 3 -6 10q-17 29 -26.5 43.5t-28.5 36t-37 31t-46.5 17.5t-63.5 8h-42v-621q0 -21 10 -34.5t23.5 -21t16.5 -11.5h-225q3 4 16.5 11.5t23.5 21t10 34.5v621h-42q-35 0 -63.5 -8t-46.5 -17.5t-37 -31t-28.5 -36t-26.5 -43.5q-4 -7 -6 -10z" />
    <glyph glyph-name="U" unicode="U" horiz-adv-x="671" 
d="M527 700h112q-2 -4 -11 -9.5t-17 -11t-15 -17.5t-7 -29v-393q0 -63 -16.5 -112t-46 -79t-68.5 -45.5t-85 -15.5q-49 0 -86.5 4.5t-78 20t-67 42t-43.5 73.5t-17 112v393q0 21 -10 34.5t-23.5 21t-16.5 11.5h225q-3 -4 -16.5 -11.5t-23.5 -21t-10 -34.5v-415
q0 -109 37 -163.5t130 -54.5q39 0 74 12.5t65 39.5t47.5 75t17.5 113v393q0 17 -7 29t-15 17.5t-17 11t-11 9.5z" />
    <glyph glyph-name="V" unicode="V" horiz-adv-x="651" 
d="M537 700h113q-3 -4 -18.5 -11.5t-31.5 -21t-23 -34.5l-223 -633h-12l-264 633q-9 20 -26 33.5t-33 21t-19 12.5h233q-2 -3 -9.5 -10t-11.5 -12t-6.5 -17.5t5.5 -27.5l191 -460l162 460q7 16 4 28.5t-7.5 17.5t-12.5 11.5t-11 9.5z" />
    <glyph glyph-name="W" unicode="W" horiz-adv-x="992" 
d="M878 700h112q-2 -4 -9 -8t-15.5 -8.5t-17.5 -10.5t-17.5 -16.5t-12.5 -23.5l-211 -633h-13l-174 487l-180 -487h-12l-252 633q-7 20 -24 33.5t-33 21t-19 12.5h233q-3 -3 -10.5 -10t-11.5 -12t-7 -17.5t5 -27.5l184 -457l121 328l-46 129q-7 20 -23 33.5t-32 21.5t-19 12
h234q-3 -3 -11 -9.5t-12.5 -12t-8 -18t3.5 -27.5l154 -454l152 454q7 16 3.5 28.5t-8.5 17.5t-13 11.5t-10 9.5z" />
    <glyph glyph-name="X" unicode="X" horiz-adv-x="659" 
d="M568 67q12 -22 31.5 -35.5t36 -20t19.5 -11.5h-242q2 3 9 9.5t10.5 12t3 17.5t-9.5 28l-144 257l-169 -257q-10 -16 -12 -28t0.5 -17t9.5 -12.5t9 -9.5h-115q3 5 19 10.5t37.5 19t36.5 37.5l177 270l-166 296q-12 21 -31.5 34.5t-36 20.5t-19.5 12h241q-2 -3 -7 -7.5
t-8.5 -9t-6 -11t0 -16.5t9.5 -23l121 -216l141 216q9 15 11 27t-0.5 17t-9.5 13t-8 10h116q-3 -4 -10.5 -7.5t-18 -8t-21.5 -11t-23 -16.5t-21 -24l6 10l-156 -238l197 -351z" />
    <glyph glyph-name="Y" unicode="Y" horiz-adv-x="657" 
d="M542 700h115q-3 -5 -19.5 -11.5t-37 -20.5t-32.5 -35l-177 -300v-266q0 -21 10 -34.5t23.5 -21t16.5 -11.5h-225q2 4 15.5 11.5t24 21t10.5 34.5v266l-178 300q-11 20 -31.5 33.5t-37.5 21t-20 12.5h233q-1 -2 -8 -9.5t-10.5 -13t-2.5 -17.5t9 -27l163 -287l169 287
q8 13 10.5 22.5t0 16.5t-5.5 11t-8 9t-7 8z" />
    <glyph glyph-name="Z" unicode="Z" horiz-adv-x="601" 
d="M357 12q38 0 69.5 11.5t52.5 27t40.5 41t30.5 44.5t24 47l-42 -183h-508l385 688h-152q-35 0 -63.5 -8t-46.5 -17.5t-37 -31t-28.5 -36t-26.5 -43.5q-4 -7 -6 -10l33 158h475l-384 -688h184z" />
    <glyph glyph-name="bracketleft" unicode="[" horiz-adv-x="261" 
d="M165 17l58 -25v-4h-150v724h150v-4l-58 -25v-666z" />
    <glyph glyph-name="backslash" unicode="\" horiz-adv-x="324" 
d="M52 700l236 -700h-17l-237 700h18z" />
    <glyph glyph-name="bracketright" unicode="]" horiz-adv-x="261" 
d="M38 712h150v-725h-150v5l58 25v666l-58 25v4z" />
    <glyph glyph-name="underscore" unicode="_" horiz-adv-x="271" 
d="M260 0h-249v17h249v-17z" />
    <glyph glyph-name="a" unicode="a" horiz-adv-x="659" 
d="M577 67q7 -16 19 -28t23.5 -17.5t22 -11.5t13.5 -10h-233q2 3 9.5 10t11.5 12t6.5 17.5t-5.5 27.5l-61 145h-241l-51 -145q-7 -16 -4 -28.5t7.5 -17.5t12.5 -11.5t10 -9.5h-112q3 4 18.5 11.5t31.5 21t23 34.5l223 633h12zM147 225h231l-125 302z" />
    <glyph glyph-name="b" unicode="b" horiz-adv-x="599" 
d="M347 368q107 -10 157.5 -55.5t50.5 -127.5q0 -185 -275 -185h-242q3 4 11.5 9.5l17 11t15 17.5t6.5 29v566q0 21 -10 34.5t-23.5 21t-16.5 11.5h208q276 0 276 -171q0 -41 -22 -74t-61 -54.5t-92 -32.5zM213 687v-316h34q84 0 119.5 38.5t35.5 119.5q0 77 -36 117.5
t-120 40.5h-33zM280 12q76 0 110.5 48t34.5 125q0 173 -162 173h-50v-346h67z" />
    <glyph glyph-name="c" unicode="c" horiz-adv-x="628" 
d="M398 17q116 -9 200 77q-27 -49 -82 -77.5t-122 -28.5q-96 0 -177.5 48.5t-129 132t-47.5 181.5t47.5 181.5t129 132t177.5 48.5q64 0 138 -41q8 -6 15 -3t11 9t7 15v-209q-7 35 -20 70t-33 69.5t-51 56t-67 21.5q-67 0 -117.5 -49.5t-75 -128t-24.5 -172.5q0 -93 26 -166
t76.5 -117.5t118.5 -49.5z" />
    <glyph glyph-name="d" unicode="d" horiz-adv-x="711" 
d="M317 700q100 0 181.5 -47t127 -127t45.5 -176t-45.5 -176t-127 -127t-181.5 -47h-279q3 4 11.5 9.5l17 11t15 17.5t6.5 29v566q0 17 -6.5 29t-15 17.5l-17 11t-11.5 9.5h279zM317 13q43 0 78.5 17.5t61 49t43 74.5t26 92.5t8.5 103.5q0 92 -23 167t-73.5 123t-120.5 48
h-104v-675h104z" />
    <glyph glyph-name="e" unicode="e" horiz-adv-x="570" 
d="M321 12q38 0 69.5 11.5t52.5 27t40.5 41t30.5 44.5t24 47l-42 -183h-458q3 4 16.5 11.5t23.5 21t10 34.5v566q0 17 -6.5 29t-15 17.5l-17 11t-11.5 9.5h442l33 -158q-2 3 -6 10q-17 29 -26.5 43.5t-28.5 36t-37 31t-46.5 17t-63.5 7.5h-92v-316h109q20 0 33.5 16t21 37.5
t11.5 25.5v-171q-4 4 -9.5 18.5t-11 27t-17.5 23t-29 10.5h-108v-346h108z" />
    <glyph glyph-name="f" unicode="f" horiz-adv-x="529" 
d="M38 700h442l33 -158q-2 3 -6 10q-17 29 -26.5 43.5t-28.5 36t-37 31t-46.5 17t-63.5 7.5h-92v-316h109q20 0 33.5 16t21 37.5t11.5 25.5v-171q-4 4 -9.5 18.5t-11 27t-17.5 23t-29 10.5h-108v-291q0 -21 10 -34.5t23.5 -21t16.5 -11.5h-225q3 4 16.5 11.5t23.5 21
t10 34.5v566q0 17 -6.5 29t-15 17.5l-17 11t-11.5 9.5z" />
    <glyph glyph-name="g" unicode="g" horiz-adv-x="684" 
d="M661 254q-3 -4 -16.5 -11.5t-23.5 -20.5t-10 -35v-191q-4 14 -12.5 22t-17.5 9.5t-22.5 -1t-21.5 -5.5t-20.5 -9t-13.5 -6q-51 -23 -109 -23q-96 0 -177.5 48.5t-129 132t-47.5 182t47.5 182t129 132t177.5 48.5q64 0 138 -41q11 -8 20 -1t13 21v-208q-7 35 -20 70
t-33 69.5t-51 56t-67 21.5q-51 0 -92.5 -28.5t-68.5 -77t-41.5 -111.5t-14.5 -133t14.5 -133t41.5 -111.5t68.5 -77t92.5 -28.5q17 0 34 2q58 7 58 81v140q-7 11 -23.5 21.5t-18.5 13.5h217z" />
    <glyph glyph-name="h" unicode="h" horiz-adv-x="710" 
d="M671 700q-2 -4 -11 -9.5t-17 -11t-15 -17.5t-7 -29v-566q0 -21 10.5 -34.5t24 -21t15.5 -11.5h-225q3 4 16.5 11.5t23.5 21t10 34.5v271h-283v-271q0 -21 10 -34.5t23.5 -21t16.5 -11.5h-225q3 4 16.5 11.5t23.5 21t10 34.5v566q0 17 -6.5 29t-15 17.5l-17 11t-11.5 9.5
h225q-3 -4 -16.5 -11.5t-23.5 -21t-10 -34.5v-283h283v283q0 14 -4 24t-10.5 16.5t-13.5 10.5t-13 8.5t-9 7.5h225z" />
    <glyph glyph-name="i" unicode="i" horiz-adv-x="301" 
d="M263 700q-3 -4 -16.5 -11.5t-23.5 -21t-10 -34.5v-566q0 -21 10 -34.5t23.5 -21t16.5 -11.5h-225q3 4 11.5 9.5l17 11t15 17.5t6.5 29v566q0 21 -10 34.5t-23.5 21t-16.5 11.5h225z" />
    <glyph glyph-name="j" unicode="j" horiz-adv-x="390" 
d="M133 700h225q-3 -4 -16.5 -11.5t-23.5 -21t-10 -34.5v-443q-1 -92 -48.5 -147t-118.5 -55q-99 0 -134 62l75 50q10 -17 13.5 -45t11.5 -43t34 -15q25 0 46 15.5t27 44t-18 69.5q-13 22 -13 66v441q0 21 -10 34.5t-24 21t-16 11.5z" />
    <glyph glyph-name="k" unicode="k" horiz-adv-x="684" 
d="M596 67q12 -24 30.5 -37.5t34.5 -19.5t19 -10h-184q-25 51 -91 183q-1 3 -9.5 19.5t-13 25.5t-14.5 27.5t-17.5 30t-18 27.5t-20 25.5t-20.5 18t-21 12.5l-58 -77v-225q0 -21 10 -34.5t23.5 -21t16.5 -11.5h-225q3 4 16.5 11.5t23.5 21t10 34.5v566q0 17 -6.5 29
t-15 17.5l-17 11t-11.5 9.5h225q-3 -4 -11.5 -9.5l-17 -11t-15 -17.5t-6.5 -29v-319l241 319q9 12 13.5 21.5t3 16.5t-3 11t-6.5 10t-6 8h116q-3 -5 -21 -12t-41 -21t-38 -34l-189 -250q80 -5 142.5 -56t101.5 -127q54 -104 70 -134v1z" />
    <glyph glyph-name="l" unicode="l" horiz-adv-x="537" 
d="M313 12q36 0 64.5 8t46.5 17.5t36.5 31t28 36t27.5 43.5q3 7 5 10l-33 -158h-450q3 4 16.5 11.5t23.5 21t10 34.5v566q0 17 -6.5 29t-15 17.5l-17 11t-11.5 9.5h225q-3 -4 -16.5 -11.5t-23.5 -21t-10 -34.5v-621h100z" />
    <glyph glyph-name="m" unicode="m" horiz-adv-x="864" 
d="M825 700q-2 -4 -11 -9.5t-17 -11t-14.5 -17.5t-6.5 -29v-566q0 -21 10 -34.5t23.5 -21t16.5 -11.5h-226q3 4 16.5 11.5t23.5 21t10 34.5v601l-262 -668h-12l-276 624v-557q0 -21 10.5 -34.5t24 -21t15.5 -11.5h-112q3 4 16.5 11.5t23.5 21t10 34.5v566q0 17 -6.5 29
t-15 17.5l-17 11t-11.5 9.5h154l246 -542l212 542h175z" />
    <glyph glyph-name="n" unicode="n" horiz-adv-x="698" 
d="M550 700h113q-3 -4 -11.5 -9.5l-17 -11t-15 -17.5t-6.5 -29v-633h-13l-500 639v-572q0 -21 10.5 -34.5t24 -21t15.5 -11.5h-112q3 4 16.5 11.5t23.5 21t10 34.5v566q0 21 -10 34.5t-23.5 21t-16.5 11.5h154l408 -509v442q0 17 -6.5 29t-14.5 17.5t-17 11t-12 9.5z" />
    <glyph glyph-name="o" unicode="o" 
d="M394 712q72 0 137.5 -28.5t113 -77t75.5 -115.5t28 -141q0 -98 -47.5 -181.5t-129 -132.5t-177.5 -49t-177.5 49t-129 132.5t-47.5 181.5t47.5 181.5t129 132t177.5 48.5zM394 0q67 0 117 49.5t75 128t25 172.5q0 70 -15 133t-41.5 111.5t-68 77t-92.5 28.5
q-67 0 -117.5 -49.5t-75 -128t-24.5 -172.5q0 -70 14.5 -133t41.5 -111.5t68.5 -77t92.5 -28.5z" />
    <glyph glyph-name="p" unicode="p" horiz-adv-x="567" 
d="M256 700q137 0 210.5 -60t73.5 -146q0 -41 -18 -78.5t-52 -67t-89 -47.5t-125 -18h-43v-216q0 -21 10 -34.5t23.5 -21t16.5 -11.5h-225q3 4 11.5 9.5l17 11t15 17.5t6.5 29v566q0 21 -10 34.5t-23.5 21t-16.5 11.5h218zM256 296q42 0 72.5 16t47 45t23.5 62.5t7 74.5
q0 193 -150 193h-43v-391h43z" />
    <glyph glyph-name="q" unicode="q" 
d="M483 -1h-1q-8 -2 -31.5 -8t-39.5 -10t-39.5 -12t-43.5 -17q105 37 178 -12q3 -3 18.5 -13.5t20.5 -13.5t19.5 -11.5t21.5 -11t20 -6.5t22 -3.5t20.5 3.5t22.5 9q-37 -37 -86 -37.5t-107 37.5q-19 12 -26.5 17t-34 16.5t-47 13.5t-52 -3t-62.5 -21q13 8 27 16l1 1
q61 35 107 55q-95 0 -176 49t-128 132t-47 181q0 74 28 141t75.5 115.5t113 77t137.5 28.5q96 0 177.5 -48.5t129 -132t47.5 -181.5q0 -124 -73.5 -221t-187.5 -129q-1 0 -2.5 -0.5zM177 350q0 -94 24.5 -172.5t75 -128t117.5 -49.5t117 49.5t75 128t25 172.5q0 70 -15 133
t-41.5 111.5t-68 77t-92.5 28.5t-92.5 -28.5t-68.5 -77t-41.5 -111.5t-14.5 -133z" />
    <glyph glyph-name="r" unicode="r" horiz-adv-x="661" 
d="M571 67q12 -24 30.5 -37.5t34.5 -19.5t19 -10h-184q-25 51 -91 183q-2 3 -5 9q-12 26 -21 41t-25.5 38t-37.5 34.5t-45 11.5h-33v-250q0 -21 10 -34.5t23.5 -21t16.5 -11.5h-225q3 4 16.5 11.5t23.5 21t10 34.5v566q0 21 -10 34.5t-23.5 21t-16.5 11.5h225q141 0 212 -52
t71 -148q0 -68 -53.5 -116.5t-156.5 -62.5q114 -22 166 -121q52 -102 69 -134v1zM213 329h50q82 0 116 39t34 132q0 96 -35 142t-115 46h-50v-359z" />
    <glyph glyph-name="s" unicode="s" horiz-adv-x="619" 
d="M183 575q3 -37 26 -66t58 -48t77 -37t83.5 -37.5t76 -43.5t55.5 -61.5t21 -85.5q0 -95 -72.5 -151.5t-187.5 -56.5q-116 0 -200 50q-20 12 -34 1t-20 -31l-19 204q10 -24 21 -46t35 -54.5t51.5 -55.5t71.5 -39.5t94 -16.5q71 0 114 33t41 96q-1 35 -19 64.5t-46.5 50
t-65.5 41t-75 36.5t-74.5 37t-66 42.5t-48 52.5t-21.5 67q-2 40 12.5 73t39.5 54.5t58.5 36.5t68.5 21.5t69 6.5q90 0 163 -49q13 -7 21 -2t12 14l3 10l12 -183q-9 36 -25.5 68t-41.5 62.5t-62 49t-82 18.5q-52 0 -89.5 -31.5t-34.5 -93.5z" />
    <glyph glyph-name="t" unicode="t" horiz-adv-x="655" 
d="M48 700h559l33 -158q-2 3 -6 10q-17 29 -26.5 43.5t-28.5 36t-37 31t-46.5 17.5t-63.5 8h-42v-621q0 -21 10 -34.5t23.5 -21t16.5 -11.5h-225q3 4 16.5 11.5t23.5 21t10 34.5v621h-42q-35 0 -63.5 -8t-46.5 -17.5t-37 -31t-28.5 -36t-26.5 -43.5q-4 -7 -6 -10z" />
    <glyph glyph-name="u" unicode="u" horiz-adv-x="671" 
d="M527 700h112q-2 -4 -11 -9.5t-17 -11t-15 -17.5t-7 -29v-393q0 -63 -16.5 -112t-46 -79t-68.5 -45.5t-85 -15.5q-49 0 -86.5 4.5t-78 20t-67 42t-43.5 73.5t-17 112v393q0 21 -10 34.5t-23.5 21t-16.5 11.5h225q-3 -4 -16.5 -11.5t-23.5 -21t-10 -34.5v-415
q0 -109 37 -163.5t130 -54.5q39 0 74 12.5t65 39.5t47.5 75t17.5 113v393q0 17 -7 29t-15 17.5t-17 11t-11 9.5z" />
    <glyph glyph-name="v" unicode="v" horiz-adv-x="651" 
d="M537 700h113q-3 -4 -18.5 -11.5t-31.5 -21t-23 -34.5l-223 -633h-12l-264 633q-9 20 -26 33.5t-33 21t-19 12.5h233q-2 -3 -9.5 -10t-11.5 -12t-6.5 -17.5t5.5 -27.5l191 -460l162 460q7 16 4 28.5t-7.5 17.5t-12.5 11.5t-11 9.5z" />
    <glyph glyph-name="w" unicode="w" horiz-adv-x="992" 
d="M878 700h112q-2 -4 -9 -8t-15.5 -8.5t-17.5 -10.5t-17.5 -16.5t-12.5 -23.5l-211 -633h-13l-174 487l-180 -487h-12l-252 633q-7 20 -24 33.5t-33 21t-19 12.5h233q-3 -3 -10.5 -10t-11.5 -12t-7 -17.5t5 -27.5l184 -457l121 328l-46 129q-7 20 -23 33.5t-32 21.5t-19 12
h234q-3 -3 -11 -9.5t-12.5 -12t-8 -18t3.5 -27.5l154 -454l152 454q7 16 3.5 28.5t-8.5 17.5t-13 11.5t-10 9.5z" />
    <glyph glyph-name="x" unicode="x" horiz-adv-x="659" 
d="M568 67q12 -22 31.5 -35.5t36 -20t19.5 -11.5h-242q2 3 9 9.5t10.5 12t3 17.5t-9.5 28l-144 257l-169 -257q-10 -16 -12 -28t0.5 -17t9.5 -12.5t9 -9.5h-115q3 5 19 10.5t37.5 19t36.5 37.5l177 270l-166 296q-12 21 -31.5 34.5t-36 20.5t-19.5 12h241q-2 -3 -7 -7.5
t-8.5 -9t-6 -11t0 -16.5t9.5 -23l121 -216l141 216q9 15 11 27t-0.5 17t-9.5 13t-8 10h116q-3 -4 -10.5 -7.5t-18 -8t-21.5 -11t-23 -16.5t-21 -24l6 10l-156 -238l197 -351z" />
    <glyph glyph-name="y" unicode="y" horiz-adv-x="657" 
d="M542 700h115q-3 -5 -19.5 -11.5t-37 -20.5t-32.5 -35l-177 -300v-266q0 -21 10 -34.5t23.5 -21t16.5 -11.5h-225q2 4 15.5 11.5t24 21t10.5 34.5v266l-178 300q-11 20 -31.5 33.5t-37.5 21t-20 12.5h233q-1 -2 -8 -9.5t-10.5 -13t-2.5 -17.5t9 -27l163 -287l169 287
q8 13 10.5 22.5t0 16.5t-5.5 11t-8 9t-7 8z" />
    <glyph glyph-name="z" unicode="z" horiz-adv-x="601" 
d="M357 12q38 0 69.5 11.5t52.5 27t40.5 41t30.5 44.5t24 47l-42 -183h-508l385 688h-152q-35 0 -63.5 -8t-46.5 -17.5t-37 -31t-28.5 -36t-26.5 -43.5q-4 -7 -6 -10l33 158h475l-384 -688h184z" />
    <glyph glyph-name="braceleft" unicode="{" horiz-adv-x="282" 
d="M185 181q2 -53 7 -89t14 -57.5t20 -32.5t26 -14q-65 0 -109 52.5t-50 154.5q0 16 -1 40.5t-1.5 36t-3 27t-7 23.5t-13 15.5t-21.5 12.5q13 5 21.5 12.5t13 15.5t7 23.5t3 27t1.5 36t1 40.5q6 102 50 155t109 53q-31 -8 -47 -50t-20 -144q-2 -51 -16 -87t-35 -52.5
t-39.5 -23t-37.5 -6.5q19 0 37.5 -6.5t39.5 -23t35 -52.5t16 -87z" />
    <glyph glyph-name="verticalbar" unicode="|" horiz-adv-x="163" 
d="M90 0h-17v700h17v-700z" />
    <glyph glyph-name="braceright" unicode="}" horiz-adv-x="282" 
d="M188 505q1 -14 1.5 -31.5t0.5 -28t1 -23.5t2.5 -21t5 -17t8 -14.5t12 -11t16.5 -8.5q-13 -5 -21.5 -12.5t-13 -15.5t-7 -23.5t-3 -27t-1 -36t-1.5 -40.5q-6 -102 -49.5 -155t-109.5 -53q32 8 47.5 50t19.5 144q2 51 16 87t35.5 52.5t39.5 23t37 6.5q-19 0 -37 6.5
t-39.5 23t-35.5 52.5t-16 87q-4 102 -19.5 144t-47.5 49q32 0 59 -12.5t48.5 -37.5t35 -65t16.5 -92z" />
    <glyph glyph-name="nonbreakingspace" unicode="&#xa0;" horiz-adv-x="348" 
 />
    <glyph glyph-name="exclamdown" unicode="&#xa1;" horiz-adv-x="252" 
d="M125.5 600q-20.5 0 -35 14.5t-14.5 35.5t14.5 35.5t35 14.5t35.5 -14.5t15 -35.5t-15 -35.5t-35.5 -14.5zM192 79v-8q0 -29 -19.5 -50t-47 -21t-47 21t-19.5 50v0v9l25 212l37 241h10l36 -241z" />
    <glyph glyph-name="cent" unicode="&#xa2;" horiz-adv-x="486" 
d="M302 126q34 -8 69 5t64 43q-19 -34 -57 -54t-84 -20q-43 0 -83 15l-20 -82h-14l21 87q-44 19 -77 53.5t-52 80t-19 96.5q0 104 71.5 177t172.5 73q9 0 18 -1l16 68h14l-17 -70q30 -7 64 -30q11 -8 20 -0.5t11 17.5v-147q-4 31 -14.5 59.5t-32.5 54t-51 33.5l-98 -412
q31 -36 78 -46zM175 350q0 -105 38 -164l96 401h-15q-32 0 -56.5 -22.5t-37.5 -59.5t-19 -76t-6 -79z" />
    <glyph glyph-name="sterling" unicode="&#xa3;" horiz-adv-x="513" 
d="M264 647q-40 -18 -60 -63t-8 -108q14 -69 17 -110h90v-13h-89q2 -40 -3.5 -74.5t-21 -73.5t-42.5 -80h214q16 0 28 6.5t17.5 15l11 17t9.5 11.5l25 -175h-398q49 72 76 128.5t31 98t-2 69t-23 57.5h-82v13h75q-1 3 -13 23t-15.5 27t-11 23.5t-10.5 31t-4 30.5q-3 40 5 74
t25.5 56.5t38.5 39t46.5 25t48 12.5t44.5 4q24 0 49.5 -7.5t49.5 -23.5t42 -38.5t27.5 -55t7.5 -70.5q-8 51 -32 84.5t-54 44.5t-58 11t-51 -10z" />
    <glyph glyph-name="yen" unicode="&#xa5;" horiz-adv-x="598" 
d="M470 700h116q-3 -4 -13.5 -9.5t-22 -10.5t-25 -17.5t-21.5 -29.5l-142 -300h83v-12h-83v-62h83v-13h-83v-179q0 -21 10 -34.5t23.5 -21t16.5 -11.5h-225q3 4 16.5 11.5t23.5 21t10 34.5v179h-83v13h83v62h-83v12h83l-145 303q-8 15 -21 27t-24.5 17t-21.5 10.5t-13 9.5
h232q-2 -3 -7 -8t-9 -9.5t-7 -11t-2 -16t7 -22.5l129 -284l134 284q8 17 7.5 29t-5 17t-12 11.5t-9.5 9.5z" />
    <glyph glyph-name="section" unicode="&#xa7;" horiz-adv-x="552" 
d="M232 579q2 -30 22.5 -54.5t50 -40.5t64 -36.5t63.5 -41t48.5 -54.5t19.5 -76q0 -62 -31 -99.5t-79 -51.5q-12 -64 -60 -94.5t-108 -30.5q-67 0 -115 35.5t-53 98.5q13 -46 47 -73.5t69 -35t68 -2.5t56.5 28.5t24.5 68.5q0 28 -13.5 49.5t-36 36t-49.5 28.5t-54 30
t-49.5 36.5t-37.5 53t-16 74.5q-1 31 7.5 56.5t24 44t35 30.5t42.5 19q10 60 56 92t101 30q57 -2 91.5 -43t34.5 -91q-7 33 -22.5 57.5t-35.5 39t-45 19.5q-51 12 -86.5 -20.5t-33.5 -82.5zM393 159q32 26 33 77q0 28 -13.5 49.5t-36 36.5t-49.5 28.5t-54 29.5t-49.5 36.5
t-37.5 53t-16 74.5v10q-22 -14 -34 -38.5t-11 -52.5q2 -30 22.5 -55t50 -42t64 -38t63.5 -41.5t48.5 -53.5t19.5 -73v-1z" />
    <glyph glyph-name="copyright" unicode="&#xa9;" horiz-adv-x="668" 
d="M342 203q28 -8 54.5 -1t48.5 25q-30 -41 -91 -41q-55 0 -93 38.5t-38 92.5t38 92.5t92.5 38.5t82.5 -41l-33 -13q-2 9 -6 17.5t-10.5 15.5t-15 11.5t-17.5 5.5q-34 0 -51 -36.5t-17 -90.5q0 -95 56 -114zM334 600q117 0 200 -83t83 -200t-83 -200t-200 -83t-200 83
t-83 200t83 200t200 83zM334 47q112 0 191 79t79 191t-79 191.5t-191 79.5t-191 -79.5t-79 -191.5t79 -191t191 -79z" />
    <glyph glyph-name="guillemotleft" unicode="&#xab;" horiz-adv-x="304" 
d="M183 333l-81 -133l81 -133h-8l-142 133l142 133h8zM266 333l-58 -133l58 -133h-8l-117 133l117 133h8z" />
    <glyph glyph-name="softhyphen" unicode="&#xad;" horiz-adv-x="0" 
 />
    <glyph glyph-name="registered" unicode="&#xae;" horiz-adv-x="472" 
d="M312 435q4 -8 13 -12.5l9 -4.5h-48q-6 13 -24 48l-1 2q-16 33 -34 33h-8v-66q0 -5 2.5 -8.5t6 -5.5t4.5 -3h-59q0 1 4 3t6.5 5.5t2.5 8.5v149q0 3 -1 5.5t-3 4.5t-3.5 3t-3.5 2t-2 2h59q74 0 74 -52q0 -12 -6 -21.5t-18.5 -16.5t-30.5 -9q30 -6 43.5 -32t17.5 -35z
M232 504q21 0 30 10t9 35q0 49 -39 49h-13v-94h13zM236 700q79 0 134.5 -56t55.5 -135t-55.5 -134.5t-134.5 -55.5t-135 55.5t-56 134.5t56 135t135 56zM236 331q74 0 126 52t52 126t-52 126.5t-126 52.5t-126.5 -52.5t-52.5 -126.5t52.5 -126t126.5 -52z" />
    <glyph glyph-name="degree" unicode="&#xb0;" horiz-adv-x="210" 
d="M105 712q31 0 53 -21.5t22 -53t-22 -53.5t-53 -22t-53 22t-22 53.5t22 53t53 21.5zM105 575q26 0 44 18.5t18 44t-18 44t-44 18.5t-44 -18.5t-18 -44t18 -44t44 -18.5z" />
    <glyph glyph-name="guillemotright" unicode="&#xbb;" horiz-adv-x="304" 
d="M129 333l141 -133l-141 -133h-9l82 133l-82 133h9zM45 333l117 -133l-117 -133h-8l58 133l-58 133h8z" />
    <glyph glyph-name="questiondown" unicode="&#xbf;" horiz-adv-x="416" 
d="M247 600q-21 0 -35.5 14.5t-14.5 35.5t14.5 35.5t35.5 14.5t35.5 -14.5t14.5 -35.5t-14.5 -35.5t-35.5 -14.5zM234 28q46 -13 88 13.5t56 79.5q-2 -56 -44 -94.5t-100 -38.5q-33 0 -65 9.5t-61 29.5t-47 56.5t-18 84.5q0 37 18 70.5t38 52t51.5 44t41.5 34.5q36 35 51 80
t0 90l8 7q13 -23 17.5 -53.5t-4 -69t-30.5 -73.5q-2 -4 -7 -12q-19 -32 -28.5 -48.5t-19.5 -44.5t-15 -60q-4 -17 -2.5 -41.5t6.5 -47t22.5 -42t43.5 -26.5z" />
    <glyph glyph-name="Agrave" unicode="&#xc0;" horiz-adv-x="651" 
d="M418 0q2 3 9.5 10t11.5 12t6.5 17.5t-5.5 27.5l-61 146h-241l-51 -146q-7 -16 -4 -28.5t7.5 -17.5t12.5 -11.5t10 -9.5h-112q3 4 18.5 11.5t31.5 21t23 34.5l223 633h12l264 -633q9 -20 26 -33.5t33 -21t19 -12.5h-233zM143 225h231l-125 302zM359 800h-17l-128 123
l66 47z" />
    <glyph glyph-name="Aacute" unicode="&#xc1;" horiz-adv-x="651" 
d="M418 0q2 3 9.5 10t11.5 12t6.5 17.5t-5.5 27.5l-61 146h-241l-51 -146q-7 -16 -4 -28.5t7.5 -17.5t12.5 -11.5t10 -9.5h-112q3 4 18.5 11.5t31.5 21t23 34.5l223 633h12l264 -633q9 -20 26 -33.5t33 -21t19 -12.5h-233zM143 225h231l-125 302zM398 923l-128 -123h-17
l79 170z" />
    <glyph glyph-name="Acircumflex" unicode="&#xc2;" horiz-adv-x="651" 
d="M418 0q2 3 9.5 10t11.5 12t6.5 17.5t-5.5 27.5l-61 146h-241l-51 -146q-7 -16 -4 -28.5t7.5 -17.5t12.5 -11.5t10 -9.5h-112q3 4 18.5 11.5t31.5 21t23 34.5l223 633h12l264 -633q9 -20 26 -33.5t33 -21t19 -12.5h-233zM143 225h231l-125 302zM304 868l-106 -68h-17
l115 152h16l114 -152h-16z" />
    <glyph glyph-name="Atilde" unicode="&#xc3;" horiz-adv-x="651" 
d="M418 0q2 3 9.5 10t11.5 12t6.5 17.5t-5.5 27.5l-61 146h-241l-51 -146q-7 -16 -4 -28.5t7.5 -17.5t12.5 -11.5t10 -9.5h-112q3 4 18.5 11.5t31.5 21t23 34.5l223 633h12l264 -633q9 -20 26 -33.5t33 -21t19 -12.5h-233zM143 225h231l-125 302zM297 834q-75 54 -103 -34
h-17q4 35 13.5 59.5t20.5 36t25 16.5t26 3.5t25.5 -6.5t21 -9.5t14.5 -9.5l10 -8t14.5 -10.5t15 -8t17.5 -5t15.5 3t15 12t11.5 25.5h17q-18 -155 -142 -65z" />
    <glyph glyph-name="Adieresis" unicode="&#xc4;" horiz-adv-x="651" 
d="M418 0q2 3 9.5 10t11.5 12t6.5 17.5t-5.5 27.5l-61 146h-241l-51 -146q-7 -16 -4 -28.5t7.5 -17.5t12.5 -11.5t10 -9.5h-112q3 4 18.5 11.5t31.5 21t23 34.5l223 633h12l264 -633q9 -20 26 -33.5t33 -21t19 -12.5h-233zM143 225h231l-125 302zM209.5 800q-22.5 0 -38 16
t-15.5 38t15.5 37.5t38 15.5t38 -15.5t15.5 -37.5t-15.5 -38t-38 -16zM379 800q-22 0 -38 16t-16 38t16 37.5t38 15.5t38 -15.5t16 -37.5t-16 -38t-38 -16z" />
    <glyph glyph-name="Aring" unicode="&#xc5;" horiz-adv-x="651" 
d="M418 0q2 3 9.5 10t11.5 12t6.5 17.5t-5.5 27.5l-61 146h-241l-51 -146q-7 -16 -4 -28.5t7.5 -17.5t12.5 -11.5t10 -9.5h-112q3 4 18.5 11.5t31.5 21t23 34.5l223 633h12l264 -633q9 -20 26 -33.5t33 -21t19 -12.5h-233zM143 225h231l-125 302zM303.5 783q-40.5 0 -69 25
t-28.5 60t28.5 60t69 25t69 -25t28.5 -60t-28.5 -60t-69 -25zM303 944q-18 0 -28 -21.5t-10 -54.5q0 -22 4 -38.5t13 -27t21 -10.5q19 0 28.5 21.5t9.5 54.5q0 22 -4 38.5t-12.5 27t-21.5 10.5z" />
    <glyph glyph-name="AE" unicode="&#xc6;" horiz-adv-x="928" 
d="M679 13q37 0 68.5 11t52.5 26.5t41 41t30.5 44.5t23.5 47l-41 -183h-436q2 3 9.5 9.5t13 14t5.5 18.5q0 6 -2 12q-1 6 -4 13l-61 146h-241l-51 -146q-7 -16 -4 -28.5t7.5 -17.5t12.5 -11.5t11 -9.5h-113q2 3 7 6t13.5 7.5t13.5 7.5q30 18 39 46l53 149l170 484h12
l136 -326v259q0 21 -10 34.5t-23.5 21t-16.5 11.5h442l33 -158q-2 3 -5 9q-18 30 -27.5 44.5t-28 36t-36.5 31t-47 17.5t-64 8h-92v-317h109q21 0 34 16t20.5 37.5t11.5 25.5v-171q-4 4 -9.5 18.5t-11 27t-17.5 23t-28 10.5h-109v-345h109zM143 225h231l-125 302z" />
    <glyph glyph-name="Ccedilla" unicode="&#xc7;" horiz-adv-x="628" 
d="M394 -12q-27 0 -55 4l-13 -46q17 6 38 5t39 -6.5t30 -21.5t12 -38q0 -35 -26 -51.5t-58 -16.5q-24 0 -42.5 11t-23.5 32q7 -11 20 -18t24.5 -8.5t21.5 0.5q13 3 21.5 11.5t12 18.5t3.5 21q0 38 -22.5 50.5t-52.5 -0.5h-9l17 58q-82 16 -148.5 66.5t-104.5 127t-38 163.5
q0 98 47.5 181.5t129 132.5t177.5 49q64 0 138 -42q8 -6 15 -3t11 9t7 15v-209q-7 35 -20 70t-33 69.5t-51 56t-67 21.5q-67 0 -117.5 -49.5t-75 -128t-24.5 -172.5q0 -69 15.5 -128.5t43 -103.5t69.5 -70.5t93 -30.5q116 -9 200 77q-27 -49 -82 -77.5t-122 -28.5z" />
    <glyph glyph-name="Egrave" unicode="&#xc8;" horiz-adv-x="568" 
d="M319 13q38 0 69.5 11t52.5 26.5t40.5 41t30.5 44.5t24 47l-42 -183h-458q3 4 16.5 11.5t23.5 21t10 34.5v566q0 17 -6.5 29t-15 17.5l-17 11t-11.5 9.5h442l33 -158q-2 3 -6 10q-17 29 -26.5 43.5t-28.5 36t-37 31t-46.5 17.5t-63.5 8h-92v-317h109q20 0 33.5 16t21 37.5
t11.5 25.5v-171q-4 4 -9.5 18.5t-11 27t-17.5 23t-29 10.5h-108v-345h108zM359 800h-17l-129 123l66 47z" />
    <glyph glyph-name="Eacute" unicode="&#xc9;" horiz-adv-x="568" 
d="M319 13q38 0 69.5 11t52.5 26.5t40.5 41t30.5 44.5t24 47l-42 -183h-458q3 4 16.5 11.5t23.5 21t10 34.5v566q0 17 -6.5 29t-15 17.5l-17 11t-11.5 9.5h442l33 -158q-2 3 -6 10q-17 29 -26.5 43.5t-28.5 36t-37 31t-46.5 17.5t-63.5 8h-92v-317h109q20 0 33.5 16t21 37.5
t11.5 25.5v-171q-4 4 -9.5 18.5t-11 27t-17.5 23t-29 10.5h-108v-345h108zM359 923l-129 -123h-17l80 170z" />
    <glyph glyph-name="Ecircumflex" unicode="&#xca;" horiz-adv-x="568" 
d="M319 13q38 0 69.5 11t52.5 26.5t40.5 41t30.5 44.5t24 47l-42 -183h-458q3 4 16.5 11.5t23.5 21t10 34.5v566q0 17 -6.5 29t-15 17.5l-17 11t-11.5 9.5h442l33 -158q-2 3 -6 10q-17 29 -26.5 43.5t-28.5 36t-37 31t-46.5 17.5t-63.5 8h-92v-317h109q20 0 33.5 16t21 37.5
t11.5 25.5v-171q-4 4 -9.5 18.5t-11 27t-17.5 23t-29 10.5h-108v-345h108zM286 868l-106 -68h-17l115 152h16l115 -152h-17z" />
    <glyph glyph-name="Edieresis" unicode="&#xcb;" horiz-adv-x="568" 
d="M319 13q38 0 69.5 11t52.5 26.5t40.5 41t30.5 44.5t24 47l-42 -183h-458q3 4 16.5 11.5t23.5 21t10 34.5v566q0 17 -6.5 29t-15 17.5l-17 11t-11.5 9.5h442l33 -158q-2 3 -6 10q-17 29 -26.5 43.5t-28.5 36t-37 31t-46.5 17.5t-63.5 8h-92v-317h109q20 0 33.5 16t21 37.5
t11.5 25.5v-171q-4 4 -9.5 18.5t-11 27t-17.5 23t-29 10.5h-108v-345h108zM201.5 800q-22.5 0 -38 16t-15.5 38t15.5 37.5t38 15.5t38 -15.5t15.5 -37.5t-15.5 -38t-38 -16zM370.5 800q-22.5 0 -38 16t-15.5 38t15.5 37.5t38 15.5t38 -15.5t15.5 -37.5t-15.5 -38t-38 -16z
" />
    <glyph glyph-name="Igrave" unicode="&#xcc;" horiz-adv-x="297" 
d="M211 67q0 -21 10 -34.5t23.5 -21t16.5 -11.5h-225q3 4 16.5 11.5t23.5 21t10 34.5v566q0 21 -10 34.5t-23.5 21t-16.5 11.5h225q-3 -4 -16.5 -11.5t-23.5 -21t-10 -34.5v-566zM221 800h-17l-128 123l66 47z" />
    <glyph glyph-name="Iacute" unicode="&#xcd;" horiz-adv-x="297" 
d="M211 67q0 -21 10 -34.5t23.5 -21t16.5 -11.5h-225q3 4 16.5 11.5t23.5 21t10 34.5v566q0 21 -10 34.5t-23.5 21t-16.5 11.5h225q-3 -4 -16.5 -11.5t-23.5 -21t-10 -34.5v-566zM221 923l-128 -123h-17l79 170z" />
    <glyph glyph-name="Icircumflex" unicode="&#xce;" horiz-adv-x="298" 
d="M261 700q-2 -4 -11 -9.5t-17 -11t-15 -17.5t-7 -29v-566q0 -21 10 -34.5t24 -21t16 -11.5h-225q3 4 16.5 11.5t23.5 21t10 34.5v566q0 21 -10 34.5t-23.5 21t-16.5 11.5h225zM149 868l-106 -68h-17l115 152h16l114 -152h-16z" />
    <glyph glyph-name="Idieresis" unicode="&#xcf;" horiz-adv-x="297" 
d="M261 700q-3 -4 -12 -9.5t-17 -11t-14.5 -17.5t-6.5 -29v-566q0 -21 10 -34.5t23.5 -21t16.5 -11.5h-225q2 4 11 9.5t17 11t15 17.5t7 29v566q0 21 -10 34.5t-24 21t-16 11.5h225zM117 854q0 -22 -15.5 -38t-38 -16t-38 16t-15.5 38t15.5 37.5t38 15.5t38 -15.5
t15.5 -37.5zM233 907q14 0 26.5 -7t19.5 -19.5t7 -26.5q0 -22 -15.5 -38t-37.5 -16t-38 16t-16 38t16 37.5t38 15.5z" />
    <glyph glyph-name="Eth" unicode="&#xd0;" horiz-adv-x="713" 
d="M319 708q100 0 181.5 -47t127 -127t45.5 -175.5t-45.5 -176t-127 -127.5t-181.5 -47h-279q3 4 11.5 10t17 11t15 17.5t6.5 28.5v275h-50v17h50v275q0 21 -10 34t-23.5 21t-16.5 11h279zM319 21q70 0 120.5 48t73.5 122.5t23 166.5t-23 167t-73.5 123t-120.5 48h-104v-329
h175v-17h-175v-329h104z" />
    <glyph glyph-name="Ntilde" unicode="&#xd1;" horiz-adv-x="696" 
d="M548 700h113q-3 -4 -11.5 -9.5l-17 -11t-15 -17.5t-6.5 -29v-633h-13l-500 639v-572q0 -17 7 -29t15 -17.5t17 -11t11 -9.5h-112q3 4 16.5 11.5t23.5 21t10 34.5v566q0 21 -10 34.5t-23.5 21t-16.5 11.5h154l408 -509v442q0 21 -10 34.5t-23.5 21t-16.5 11.5zM337 834
q-75 54 -103 -34h-17q5 35 14 59.5t20 36t25 16.5t26 3.5t25.5 -6.5t21 -9.5t14.5 -9.5q1 -1 9 -7l12 -9t13 -7.5t15 -6t14 -1.5t14 4t12 13t11 23h17q-18 -155 -143 -65z" />
    <glyph glyph-name="Ograve" unicode="&#xd2;" 
d="M394 712q96 0 177.5 -48.5t129 -132t47.5 -181.5t-47.5 -181.5t-129 -132t-177.5 -48.5t-177.5 48.5t-129 132t-47.5 181.5t47.5 181.5t129 132t177.5 48.5zM394 0q67 0 117 49.5t75 128t25 172.5q0 70 -15 133t-41.5 111.5t-68 77t-92.5 28.5q-67 0 -117.5 -49.5
t-75 -128t-24.5 -172.5q0 -70 14.5 -133t41.5 -111.5t68.5 -77t92.5 -28.5zM467 800h-17l-128 123l65 47z" />
    <glyph glyph-name="Oacute" unicode="&#xd3;" 
d="M394 712q96 0 177.5 -48.5t129 -132t47.5 -181.5t-47.5 -181.5t-129 -132t-177.5 -48.5t-177.5 48.5t-129 132t-47.5 181.5t47.5 181.5t129 132t177.5 48.5zM394 0q67 0 117 49.5t75 128t25 172.5q0 70 -15 133t-41.5 111.5t-68 77t-92.5 28.5q-67 0 -117.5 -49.5
t-75 -128t-24.5 -172.5q0 -70 14.5 -133t41.5 -111.5t68.5 -77t92.5 -28.5zM467 923l-129 -123h-16l79 170z" />
    <glyph glyph-name="Ocircumflex" unicode="&#xd4;" 
d="M394 712q96 0 177.5 -48.5t129 -132t47.5 -181.5t-47.5 -181.5t-129 -132t-177.5 -48.5t-177.5 48.5t-129 132t-47.5 181.5t47.5 181.5t129 132t177.5 48.5zM394 0q67 0 117 49.5t75 128t25 172.5q0 70 -15 133t-41.5 111.5t-68 77t-92.5 28.5q-67 0 -117.5 -49.5
t-75 -128t-24.5 -172.5q0 -70 14.5 -133t41.5 -111.5t68.5 -77t92.5 -28.5zM394 868l-106 -68h-17l115 152h16l115 -152h-17z" />
    <glyph glyph-name="Otilde" unicode="&#xd5;" 
d="M394 712q96 0 177.5 -48.5t129 -132t47.5 -181.5t-47.5 -181.5t-129 -132t-177.5 -48.5t-177.5 48.5t-129 132t-47.5 181.5t47.5 181.5t129 132t177.5 48.5zM394 0q67 0 117 49.5t75 128t25 172.5q0 70 -15 133t-41.5 111.5t-68 77t-92.5 28.5q-67 0 -117.5 -49.5
t-75 -128t-24.5 -172.5q0 -70 14.5 -133t41.5 -111.5t68.5 -77t92.5 -28.5zM383 834q-76 54 -103 -34h-17q4 31 11 53.5t17 34.5t21 19.5t23 7.5t22.5 -1.5t21.5 -7t17.5 -9t12.5 -7.5l10 -8t14.5 -10.5t15 -8t17 -5t15.5 3t15.5 12t11.5 25.5h17q-18 -155 -142 -65z" />
    <glyph glyph-name="Odieresis" unicode="&#xd6;" 
d="M394 712q96 0 177.5 -48.5t129 -132t47.5 -181.5t-47.5 -181.5t-129 -132t-177.5 -48.5t-177.5 48.5t-129 132t-47.5 181.5t47.5 181.5t129 132t177.5 48.5zM394 0q67 0 117 49.5t75 128t25 172.5q0 70 -15 133t-41.5 111.5t-68 77t-92.5 28.5q-67 0 -117.5 -49.5
t-75 -128t-24.5 -172.5q0 -70 14.5 -133t41.5 -111.5t68.5 -77t92.5 -28.5zM309.5 800q-22.5 0 -38 16t-15.5 38t15.5 37.5t38 15.5t38 -15.5t15.5 -37.5t-15.5 -38t-38 -16zM478.5 800q-22.5 0 -38 16t-15.5 38t15.5 37.5t38 15.5t38 -15.5t15.5 -37.5t-15.5 -38t-38 -16z
" />
    <glyph glyph-name="multiply" unicode="&#xd7;" horiz-adv-x="212" 
d="M182 256l-65 -64l65 -65l-12 -12l-64 65l-65 -65l-12 12l65 65l-65 64l12 12l65 -65l64 65z" />
    <glyph glyph-name="Oslash" unicode="&#xd8;" 
d="M518 690q102 -39 166 -132t64 -208q0 -98 -47.5 -181.5t-129 -132t-177.5 -48.5q-55 0 -108 17l-16 -47h-17l17 52q-102 39 -166 132t-64 208q0 98 47.5 181.5t129 132t177.5 48.5q55 0 108 -17l16 47h17zM282 44l210 623q-44 33 -98 33q-51 0 -92.5 -28.5t-68.5 -77
t-41.5 -111.5t-14.5 -133q0 -97 27.5 -179t77.5 -127zM394 0q67 0 117 49.5t75 128t25 172.5q0 97 -27.5 179t-77.5 127l-210 -623q44 -33 98 -33z" />
    <glyph glyph-name="Ugrave" unicode="&#xd9;" horiz-adv-x="671" 
d="M527 700h112q-2 -4 -11 -9.5t-17 -11t-15 -17.5t-7 -29v-393q0 -124 -60 -188t-156 -64q-49 0 -86.5 4.5t-78 20t-67 42t-43.5 73.5t-17 112v393q0 21 -10 34.5t-23.5 21t-16.5 11.5h225q-3 -4 -16.5 -11.5t-23.5 -21t-10 -34.5v-415q0 -109 37 -163.5t130 -54.5
q39 0 74 12.5t65 39.5t47.5 75t17.5 113v393q0 21 -10 34.5t-24 21t-16 11.5zM408 800h-17l-128 123l65 47z" />
    <glyph glyph-name="Uacute" unicode="&#xda;" horiz-adv-x="671" 
d="M527 700h112q-2 -4 -11 -9.5t-17 -11t-15 -17.5t-7 -29v-393q0 -124 -60 -188t-156 -64q-49 0 -86.5 4.5t-78 20t-67 42t-43.5 73.5t-17 112v393q0 21 -10 34.5t-23.5 21t-16.5 11.5h225q-3 -4 -16.5 -11.5t-23.5 -21t-10 -34.5v-415q0 -109 37 -163.5t130 -54.5
q39 0 74 12.5t65 39.5t47.5 75t17.5 113v393q0 21 -10 34.5t-24 21t-16 11.5zM408 923l-128 -123h-17l79 170z" />
    <glyph glyph-name="Ucircumflex" unicode="&#xdb;" horiz-adv-x="671" 
d="M527 700h112q-2 -4 -11 -9.5t-17 -11t-15 -17.5t-7 -29v-393q0 -124 -60 -188t-156 -64q-49 0 -86.5 4.5t-78 20t-67 42t-43.5 73.5t-17 112v393q0 21 -10 34.5t-23.5 21t-16.5 11.5h225q-3 -4 -16.5 -11.5t-23.5 -21t-10 -34.5v-415q0 -109 37 -163.5t130 -54.5
q39 0 74 12.5t65 39.5t47.5 75t17.5 113v393q0 21 -10 34.5t-24 21t-16 11.5zM335 868l-106 -68h-17l115 152h16l115 -152h-17z" />
    <glyph glyph-name="Udieresis" unicode="&#xdc;" horiz-adv-x="671" 
d="M527 700h112q-2 -4 -11 -9.5t-17 -11t-15 -17.5t-7 -29v-393q0 -124 -60 -188t-156 -64q-49 0 -86.5 4.5t-78 20t-67 42t-43.5 73.5t-17 112v393q0 21 -10 34.5t-23.5 21t-16.5 11.5h225q-3 -4 -16.5 -11.5t-23.5 -21t-10 -34.5v-415q0 -109 37 -163.5t130 -54.5
q39 0 74 12.5t65 39.5t47.5 75t17.5 113v393q0 21 -10 34.5t-24 21t-16 11.5zM250.5 800q-22.5 0 -38 16t-15.5 38t15.5 37.5t38 15.5t38 -15.5t15.5 -37.5t-15.5 -38t-38 -16zM420 800q-22 0 -38 16t-16 38t16 37.5t38 15.5t37.5 -15.5t15.5 -37.5t-15.5 -38t-37.5 -16z
" />
    <glyph glyph-name="Yacute" unicode="&#xdd;" horiz-adv-x="657" 
d="M542 700h115q-3 -5 -19.5 -11.5t-37 -20.5t-32.5 -35l-177 -300v-266q0 -21 10 -34.5t23.5 -21t16.5 -11.5h-225q2 4 15.5 11.5t24 21t10.5 34.5v266l-178 300q-11 20 -31.5 33.5t-37.5 21t-20 12.5h233q-1 -2 -8 -9.5t-10.5 -13t-2.5 -17.5t9 -27l163 -287l169 287
q9 16 10.5 27.5t-1.5 17t-10.5 12.5t-8.5 10zM401 923l-128 -123h-17l79 170z" />
    <glyph glyph-name="germandbls" unicode="&#xdf;" horiz-adv-x="588" 
d="M301 369q127 -5 187 -50t60 -134q0 -90 -71 -137.5t-212 -47.5q80 11 116.5 62t36.5 123q0 32 -3.5 55.5t-14.5 48t-30 40t-52 25.5t-79 10q133 9 151 157q5 28 2 59.5t-10.5 58t-27.5 44t-48 17.5q-19 0 -34 -8.5t-25 -24.5t-18 -34.5t-12 -43.5t-7 -45.5t-3.5 -46.5
t-1 -41t0 -34.5t0.5 -21.5v-400h-175q3 4 11.5 9.5l17 11t15 17.5t6.5 29v333q0 140 57.5 226t167.5 86q93 0 144.5 -48t46.5 -135q-6 -138 -196 -160z" />
    <glyph glyph-name="agrave" unicode="&#xe0;" horiz-adv-x="651" 
d="M418 0q2 3 9.5 10t11.5 12t6.5 17.5t-5.5 27.5l-61 146h-241l-51 -146q-7 -16 -4 -28.5t7.5 -17.5t12.5 -11.5t10 -9.5h-112q3 4 18.5 11.5t31.5 21t23 34.5l223 633h12l264 -633q9 -20 26 -33.5t33 -21t19 -12.5h-233zM143 225h231l-125 302zM359 800h-17l-128 123
l66 47z" />
    <glyph glyph-name="aacute" unicode="&#xe1;" horiz-adv-x="651" 
d="M418 0q2 3 9.5 10t11.5 12t6.5 17.5t-5.5 27.5l-61 146h-241l-51 -146q-7 -16 -4 -28.5t7.5 -17.5t12.5 -11.5t10 -9.5h-112q3 4 18.5 11.5t31.5 21t23 34.5l223 633h12l264 -633q9 -20 26 -33.5t33 -21t19 -12.5h-233zM143 225h231l-125 302zM398 923l-128 -123h-17
l79 170z" />
    <glyph glyph-name="acircumflex" unicode="&#xe2;" horiz-adv-x="651" 
d="M418 0q2 3 9.5 10t11.5 12t6.5 17.5t-5.5 27.5l-61 146h-241l-51 -146q-7 -16 -4 -28.5t7.5 -17.5t12.5 -11.5t10 -9.5h-112q3 4 18.5 11.5t31.5 21t23 34.5l223 633h12l264 -633q9 -20 26 -33.5t33 -21t19 -12.5h-233zM143 225h231l-125 302zM304 868l-106 -68h-17
l115 152h16l114 -152h-16z" />
    <glyph glyph-name="atilde" unicode="&#xe3;" horiz-adv-x="651" 
d="M418 0q2 3 9.5 10t11.5 12t6.5 17.5t-5.5 27.5l-61 146h-241l-51 -146q-7 -16 -4 -28.5t7.5 -17.5t12.5 -11.5t10 -9.5h-112q3 4 18.5 11.5t31.5 21t23 34.5l223 633h12l264 -633q9 -20 26 -33.5t33 -21t19 -12.5h-233zM143 225h231l-125 302zM297 834q-75 54 -103 -34
h-17q4 35 13.5 59.5t20.5 36t25 16.5t26 3.5t25.5 -6.5t21 -9.5t14.5 -9.5l10 -8t14.5 -10.5t15 -8t17.5 -5t15.5 3t15 12t11.5 25.5h17q-18 -155 -142 -65z" />
    <glyph glyph-name="adieresis" unicode="&#xe4;" horiz-adv-x="651" 
d="M418 0q2 3 9.5 10t11.5 12t6.5 17.5t-5.5 27.5l-61 146h-241l-51 -146q-7 -16 -4 -28.5t7.5 -17.5t12.5 -11.5t10 -9.5h-112q3 4 18.5 11.5t31.5 21t23 34.5l223 633h12l264 -633q9 -20 26 -33.5t33 -21t19 -12.5h-233zM143 225h231l-125 302zM209.5 800q-22.5 0 -38 16
t-15.5 38t15.5 37.5t38 15.5t38 -15.5t15.5 -37.5t-15.5 -38t-38 -16zM379 800q-22 0 -38 16t-16 38t16 37.5t38 15.5t38 -15.5t16 -37.5t-16 -38t-38 -16z" />
    <glyph glyph-name="aring" unicode="&#xe5;" horiz-adv-x="651" 
d="M418 0q2 3 9.5 10t11.5 12t6.5 17.5t-5.5 27.5l-61 146h-241l-51 -146q-7 -16 -4 -28.5t7.5 -17.5t12.5 -11.5t10 -9.5h-112q3 4 18.5 11.5t31.5 21t23 34.5l223 633h12l264 -633q9 -20 26 -33.5t33 -21t19 -12.5h-233zM143 225h231l-125 302zM303.5 783q-40.5 0 -69 25
t-28.5 60t28.5 60t69 25t69 -25t28.5 -60t-28.5 -60t-69 -25zM303 944q-18 0 -28 -21.5t-10 -54.5q0 -22 4 -38.5t13 -27t21 -10.5q19 0 28.5 21.5t9.5 54.5q0 22 -4 38.5t-12.5 27t-21.5 10.5z" />
    <glyph glyph-name="ae" unicode="&#xe6;" horiz-adv-x="928" 
d="M679 13q37 0 68.5 11t52.5 26.5t41 41t30.5 44.5t23.5 47l-41 -183h-436q2 3 9.5 9.5t13 14t5.5 18.5q0 6 -2 12q-1 6 -4 13l-61 146h-241l-51 -146q-7 -16 -4 -28.5t7.5 -17.5t12.5 -11.5t11 -9.5h-113q2 3 7 6t13.5 7.5t13.5 7.5q30 18 39 46l53 149l170 484h12
l136 -326v259q0 21 -10 34.5t-23.5 21t-16.5 11.5h442l33 -158q-2 3 -5 9q-18 30 -27.5 44.5t-28 36t-36.5 31t-47 17.5t-64 8h-92v-317h109q21 0 34 16t20.5 37.5t11.5 25.5v-171q-4 4 -9.5 18.5t-11 27t-17.5 23t-28 10.5h-109v-345h109zM143 225h231l-125 302z" />
    <glyph glyph-name="ccedilla" unicode="&#xe7;" horiz-adv-x="628" 
d="M394 -12q-27 0 -55 4l-13 -46q17 6 38 5t39 -6.5t30 -21.5t12 -38q0 -35 -26 -51.5t-58 -16.5q-24 0 -42.5 11t-23.5 32q7 -11 20 -18t24.5 -8.5t21.5 0.5q13 3 21.5 11.5t12 18.5t3.5 21q0 38 -22.5 50.5t-52.5 -0.5h-9l17 58q-82 16 -148.5 66.5t-104.5 127t-38 163.5
q0 98 47.5 181.5t129 132.5t177.5 49q64 0 138 -42q8 -6 15 -3t11 9t7 15v-209q-7 35 -20 70t-33 69.5t-51 56t-67 21.5q-67 0 -117.5 -49.5t-75 -128t-24.5 -172.5q0 -69 15.5 -128.5t43 -103.5t69.5 -70.5t93 -30.5q116 -9 200 77q-27 -49 -82 -77.5t-122 -28.5z" />
    <glyph glyph-name="egrave" unicode="&#xe8;" horiz-adv-x="568" 
d="M319 13q38 0 69.5 11t52.5 26.5t40.5 41t30.5 44.5t24 47l-42 -183h-458q3 4 16.5 11.5t23.5 21t10 34.5v566q0 17 -6.5 29t-15 17.5l-17 11t-11.5 9.5h442l33 -158q-2 3 -6 10q-17 29 -26.5 43.5t-28.5 36t-37 31t-46.5 17.5t-63.5 8h-92v-317h109q20 0 33.5 16t21 37.5
t11.5 25.5v-171q-4 4 -9.5 18.5t-11 27t-17.5 23t-29 10.5h-108v-345h108zM359 800h-17l-129 123l66 47z" />
    <glyph glyph-name="eacute" unicode="&#xe9;" horiz-adv-x="568" 
d="M319 13q38 0 69.5 11t52.5 26.5t40.5 41t30.5 44.5t24 47l-42 -183h-458q3 4 16.5 11.5t23.5 21t10 34.5v566q0 17 -6.5 29t-15 17.5l-17 11t-11.5 9.5h442l33 -158q-2 3 -6 10q-17 29 -26.5 43.5t-28.5 36t-37 31t-46.5 17.5t-63.5 8h-92v-317h109q20 0 33.5 16t21 37.5
t11.5 25.5v-171q-4 4 -9.5 18.5t-11 27t-17.5 23t-29 10.5h-108v-345h108zM359 923l-129 -123h-17l80 170z" />
    <glyph glyph-name="ecircumflex" unicode="&#xea;" horiz-adv-x="568" 
d="M319 13q38 0 69.5 11t52.5 26.5t40.5 41t30.5 44.5t24 47l-42 -183h-458q3 4 16.5 11.5t23.5 21t10 34.5v566q0 17 -6.5 29t-15 17.5l-17 11t-11.5 9.5h442l33 -158q-2 3 -6 10q-17 29 -26.5 43.5t-28.5 36t-37 31t-46.5 17.5t-63.5 8h-92v-317h109q20 0 33.5 16t21 37.5
t11.5 25.5v-171q-4 4 -9.5 18.5t-11 27t-17.5 23t-29 10.5h-108v-345h108zM286 868l-106 -68h-17l115 152h16l115 -152h-17z" />
    <glyph glyph-name="edieresis" unicode="&#xeb;" horiz-adv-x="568" 
d="M319 13q38 0 69.5 11t52.5 26.5t40.5 41t30.5 44.5t24 47l-42 -183h-458q3 4 16.5 11.5t23.5 21t10 34.5v566q0 17 -6.5 29t-15 17.5l-17 11t-11.5 9.5h442l33 -158q-2 3 -6 10q-17 29 -26.5 43.5t-28.5 36t-37 31t-46.5 17.5t-63.5 8h-92v-317h109q20 0 33.5 16t21 37.5
t11.5 25.5v-171q-4 4 -9.5 18.5t-11 27t-17.5 23t-29 10.5h-108v-345h108zM201.5 800q-22.5 0 -38 16t-15.5 38t15.5 37.5t38 15.5t38 -15.5t15.5 -37.5t-15.5 -38t-38 -16zM370.5 800q-22.5 0 -38 16t-15.5 38t15.5 37.5t38 15.5t38 -15.5t15.5 -37.5t-15.5 -38t-38 -16z
" />
    <glyph glyph-name="igrave" unicode="&#xec;" horiz-adv-x="297" 
d="M211 67q0 -21 10 -34.5t23.5 -21t16.5 -11.5h-225q3 4 16.5 11.5t23.5 21t10 34.5v566q0 21 -10 34.5t-23.5 21t-16.5 11.5h225q-3 -4 -16.5 -11.5t-23.5 -21t-10 -34.5v-566zM221 800h-17l-128 123l66 47z" />
    <glyph glyph-name="iacute" unicode="&#xed;" horiz-adv-x="297" 
d="M211 67q0 -21 10 -34.5t23.5 -21t16.5 -11.5h-225q3 4 16.5 11.5t23.5 21t10 34.5v566q0 21 -10 34.5t-23.5 21t-16.5 11.5h225q-3 -4 -16.5 -11.5t-23.5 -21t-10 -34.5v-566zM221 923l-128 -123h-17l79 170z" />
    <glyph glyph-name="icircumflex" unicode="&#xee;" horiz-adv-x="298" 
d="M261 700q-2 -4 -11 -9.5t-17 -11t-15 -17.5t-7 -29v-566q0 -21 10 -34.5t24 -21t16 -11.5h-225q3 4 16.5 11.5t23.5 21t10 34.5v566q0 21 -10 34.5t-23.5 21t-16.5 11.5h225zM149 868l-106 -68h-17l115 152h16l114 -152h-16z" />
    <glyph glyph-name="idieresis" unicode="&#xef;" horiz-adv-x="297" 
d="M261 700q-3 -4 -12 -9.5t-17 -11t-14.5 -17.5t-6.5 -29v-566q0 -21 10 -34.5t23.5 -21t16.5 -11.5h-225q2 4 11 9.5t17 11t15 17.5t7 29v566q0 21 -10 34.5t-24 21t-16 11.5h225zM117 854q0 -22 -15.5 -38t-38 -16t-38 16t-15.5 38t15.5 37.5t38 15.5t38 -15.5
t15.5 -37.5zM233 907q14 0 26.5 -7t19.5 -19.5t7 -26.5q0 -22 -15.5 -38t-37.5 -16t-38 16t-16 38t16 37.5t38 15.5z" />
    <glyph glyph-name="ntilde" unicode="&#xf1;" horiz-adv-x="696" 
d="M548 700h113q-3 -4 -11.5 -9.5l-17 -11t-15 -17.5t-6.5 -29v-633h-13l-500 639v-572q0 -17 7 -29t15 -17.5t17 -11t11 -9.5h-112q3 4 16.5 11.5t23.5 21t10 34.5v566q0 21 -10 34.5t-23.5 21t-16.5 11.5h154l408 -509v442q0 21 -10 34.5t-23.5 21t-16.5 11.5zM337 834
q-75 54 -103 -34h-17q5 35 14 59.5t20 36t25 16.5t26 3.5t25.5 -6.5t21 -9.5t14.5 -9.5q1 -1 9 -7l12 -9t13 -7.5t15 -6t14 -1.5t14 4t12 13t11 23h17q-18 -155 -143 -65z" />
    <glyph glyph-name="ograve" unicode="&#xf2;" 
d="M394 712q96 0 177.5 -48.5t129 -132t47.5 -181.5t-47.5 -181.5t-129 -132t-177.5 -48.5t-177.5 48.5t-129 132t-47.5 181.5t47.5 181.5t129 132t177.5 48.5zM394 0q67 0 117 49.5t75 128t25 172.5q0 70 -15 133t-41.5 111.5t-68 77t-92.5 28.5q-67 0 -117.5 -49.5
t-75 -128t-24.5 -172.5q0 -70 14.5 -133t41.5 -111.5t68.5 -77t92.5 -28.5zM467 800h-17l-128 123l65 47z" />
    <glyph glyph-name="oacute" unicode="&#xf3;" 
d="M394 712q96 0 177.5 -48.5t129 -132t47.5 -181.5t-47.5 -181.5t-129 -132t-177.5 -48.5t-177.5 48.5t-129 132t-47.5 181.5t47.5 181.5t129 132t177.5 48.5zM394 0q67 0 117 49.5t75 128t25 172.5q0 70 -15 133t-41.5 111.5t-68 77t-92.5 28.5q-67 0 -117.5 -49.5
t-75 -128t-24.5 -172.5q0 -70 14.5 -133t41.5 -111.5t68.5 -77t92.5 -28.5zM467 923l-129 -123h-16l79 170z" />
    <glyph glyph-name="ocircumflex" unicode="&#xf4;" 
d="M394 712q96 0 177.5 -48.5t129 -132t47.5 -181.5t-47.5 -181.5t-129 -132t-177.5 -48.5t-177.5 48.5t-129 132t-47.5 181.5t47.5 181.5t129 132t177.5 48.5zM394 0q67 0 117 49.5t75 128t25 172.5q0 70 -15 133t-41.5 111.5t-68 77t-92.5 28.5q-67 0 -117.5 -49.5
t-75 -128t-24.5 -172.5q0 -70 14.5 -133t41.5 -111.5t68.5 -77t92.5 -28.5zM394 868l-106 -68h-17l115 152h16l115 -152h-17z" />
    <glyph glyph-name="otilde" unicode="&#xf5;" 
d="M394 712q96 0 177.5 -48.5t129 -132t47.5 -181.5t-47.5 -181.5t-129 -132t-177.5 -48.5t-177.5 48.5t-129 132t-47.5 181.5t47.5 181.5t129 132t177.5 48.5zM394 0q67 0 117 49.5t75 128t25 172.5q0 70 -15 133t-41.5 111.5t-68 77t-92.5 28.5q-67 0 -117.5 -49.5
t-75 -128t-24.5 -172.5q0 -70 14.5 -133t41.5 -111.5t68.5 -77t92.5 -28.5zM383 834q-76 54 -103 -34h-17q4 31 11 53.5t17 34.5t21 19.5t23 7.5t22.5 -1.5t21.5 -7t17.5 -9t12.5 -7.5l10 -8t14.5 -10.5t15 -8t17 -5t15.5 3t15.5 12t11.5 25.5h17q-18 -155 -142 -65z" />
    <glyph glyph-name="odieresis" unicode="&#xf6;" 
d="M394 712q96 0 177.5 -48.5t129 -132t47.5 -181.5t-47.5 -181.5t-129 -132t-177.5 -48.5t-177.5 48.5t-129 132t-47.5 181.5t47.5 181.5t129 132t177.5 48.5zM394 0q67 0 117 49.5t75 128t25 172.5q0 70 -15 133t-41.5 111.5t-68 77t-92.5 28.5q-67 0 -117.5 -49.5
t-75 -128t-24.5 -172.5q0 -70 14.5 -133t41.5 -111.5t68.5 -77t92.5 -28.5zM309.5 800q-22.5 0 -38 16t-15.5 38t15.5 37.5t38 15.5t38 -15.5t15.5 -37.5t-15.5 -38t-38 -16zM478.5 800q-22.5 0 -38 16t-15.5 38t15.5 37.5t38 15.5t38 -15.5t15.5 -37.5t-15.5 -38t-38 -16z
" />
    <glyph glyph-name="divide" unicode="&#xf7;" horiz-adv-x="298" 
d="M274 221h-250v17h250v-17zM149 284q-21 0 -35.5 14.5t-14.5 35t14.5 35.5t35.5 15t35.5 -15t14.5 -35.5t-14.5 -35t-35.5 -14.5zM149 75q-21 0 -35.5 14.5t-14.5 35.5t14.5 35.5t35.5 14.5t35.5 -14.5t14.5 -35.5t-14.5 -35.5t-35.5 -14.5z" />
    <glyph glyph-name="oslash" unicode="&#xf8;" 
d="M518 690q102 -39 166 -132t64 -208q0 -98 -47.5 -181.5t-129 -132t-177.5 -48.5q-55 0 -108 17l-16 -47h-17l17 52q-102 39 -166 132t-64 208q0 98 47.5 181.5t129 132t177.5 48.5q55 0 108 -17l16 47h17zM282 44l210 623q-44 33 -98 33q-51 0 -92.5 -28.5t-68.5 -77
t-41.5 -111.5t-14.5 -133q0 -97 27.5 -179t77.5 -127zM394 0q67 0 117 49.5t75 128t25 172.5q0 97 -27.5 179t-77.5 127l-210 -623q44 -33 98 -33z" />
    <glyph glyph-name="ugrave" unicode="&#xf9;" horiz-adv-x="671" 
d="M527 700h112q-2 -4 -11 -9.5t-17 -11t-15 -17.5t-7 -29v-393q0 -124 -60 -188t-156 -64q-49 0 -86.5 4.5t-78 20t-67 42t-43.5 73.5t-17 112v393q0 21 -10 34.5t-23.5 21t-16.5 11.5h225q-3 -4 -16.5 -11.5t-23.5 -21t-10 -34.5v-415q0 -109 37 -163.5t130 -54.5
q39 0 74 12.5t65 39.5t47.5 75t17.5 113v393q0 21 -10 34.5t-24 21t-16 11.5zM408 800h-17l-128 123l65 47z" />
    <glyph glyph-name="uacute" unicode="&#xfa;" horiz-adv-x="671" 
d="M527 700h112q-2 -4 -11 -9.5t-17 -11t-15 -17.5t-7 -29v-393q0 -124 -60 -188t-156 -64q-49 0 -86.5 4.5t-78 20t-67 42t-43.5 73.5t-17 112v393q0 21 -10 34.5t-23.5 21t-16.5 11.5h225q-3 -4 -16.5 -11.5t-23.5 -21t-10 -34.5v-415q0 -109 37 -163.5t130 -54.5
q39 0 74 12.5t65 39.5t47.5 75t17.5 113v393q0 21 -10 34.5t-24 21t-16 11.5zM408 923l-128 -123h-17l79 170z" />
    <glyph glyph-name="ucircumflex" unicode="&#xfb;" horiz-adv-x="671" 
d="M527 700h112q-2 -4 -11 -9.5t-17 -11t-15 -17.5t-7 -29v-393q0 -124 -60 -188t-156 -64q-49 0 -86.5 4.5t-78 20t-67 42t-43.5 73.5t-17 112v393q0 21 -10 34.5t-23.5 21t-16.5 11.5h225q-3 -4 -16.5 -11.5t-23.5 -21t-10 -34.5v-415q0 -109 37 -163.5t130 -54.5
q39 0 74 12.5t65 39.5t47.5 75t17.5 113v393q0 21 -10 34.5t-24 21t-16 11.5zM335 868l-106 -68h-17l115 152h16l115 -152h-17z" />
    <glyph glyph-name="udieresis" unicode="&#xfc;" horiz-adv-x="671" 
d="M527 700h112q-2 -4 -11 -9.5t-17 -11t-15 -17.5t-7 -29v-393q0 -124 -60 -188t-156 -64q-49 0 -86.5 4.5t-78 20t-67 42t-43.5 73.5t-17 112v393q0 21 -10 34.5t-23.5 21t-16.5 11.5h225q-3 -4 -16.5 -11.5t-23.5 -21t-10 -34.5v-415q0 -109 37 -163.5t130 -54.5
q39 0 74 12.5t65 39.5t47.5 75t17.5 113v393q0 21 -10 34.5t-24 21t-16 11.5zM250.5 800q-22.5 0 -38 16t-15.5 38t15.5 37.5t38 15.5t38 -15.5t15.5 -37.5t-15.5 -38t-38 -16zM420 800q-22 0 -38 16t-16 38t16 37.5t38 15.5t37.5 -15.5t15.5 -37.5t-15.5 -38t-37.5 -16z
" />
    <glyph glyph-name="yacute" unicode="&#xfd;" horiz-adv-x="657" 
d="M542 700h115q-3 -5 -19.5 -11.5t-37 -20.5t-32.5 -35l-177 -300v-266q0 -21 10 -34.5t23.5 -21t16.5 -11.5h-225q2 4 15.5 11.5t24 21t10.5 34.5v266l-178 300q-11 20 -31.5 33.5t-37.5 21t-20 12.5h233q-1 -2 -8 -9.5t-10.5 -13t-2.5 -17.5t9 -27l163 -287l169 287
q9 16 10.5 27.5t-1.5 17t-10.5 12.5t-8.5 10zM401 923l-128 -123h-17l79 170z" />
    <glyph glyph-name="ydieresis" unicode="&#xff;" horiz-adv-x="657" 
d="M542 700h115q-3 -5 -19.5 -11.5t-37 -20.5t-32.5 -35l-177 -300v-266q0 -21 10 -34.5t23.5 -21t16.5 -11.5h-225q2 4 15.5 11.5t24 21t10.5 34.5v266l-178 300q-11 20 -31.5 33.5t-37.5 21t-20 12.5h233q-1 -2 -8 -9.5t-10.5 -13t-2.5 -17.5t9 -27l163 -287l169 287
q8 13 10.5 22.5t0 16.5t-5.5 11t-8 9t-7 8zM294 800q-22 0 -38 16t-16 38t16 37.5t38 15.5t38 -15.5t16 -37.5t-16 -38t-38 -16zM463 800q-22 0 -37.5 16t-15.5 38t15.5 37.5t37.5 15.5t38 -15.5t16 -37.5t-16 -38t-38 -16z" />
    <glyph glyph-name="Ydieresis" unicode="&#x178;" horiz-adv-x="657" 
d="M542 700h115q-3 -5 -19.5 -11.5t-37 -20.5t-32.5 -35l-177 -300v-266q0 -21 10 -34.5t23.5 -21t16.5 -11.5h-225q2 4 15.5 11.5t24 21t10.5 34.5v266l-178 300q-11 20 -31.5 33.5t-37.5 21t-20 12.5h233q-1 -2 -8 -9.5t-10.5 -13t-2.5 -17.5t9 -27l163 -287l169 287
q8 13 10.5 22.5t0 16.5t-5.5 11t-8 9t-7 8zM294 800q-22 0 -38 16t-16 38t16 37.5t38 15.5t38 -15.5t16 -37.5t-16 -38t-38 -16zM463 800q-22 0 -37.5 16t-15.5 38t15.5 37.5t37.5 15.5t38 -15.5t16 -37.5t-16 -38t-38 -16z" />
    <glyph glyph-name="quoteright" unicode="&#x2019;" horiz-adv-x="131" 
d="M53 717l65 7q-40 -94 -58 -116l-36 -7q10 27 19.5 66t9.5 50z" />
    <glyph glyph-name="quotedblright" unicode="&#x201d;" horiz-adv-x="210" 
d="M53 717l65 7q-40 -94 -58 -116l-36 -7q10 27 19.5 66t9.5 50zM132 717l66 7q-40 -94 -58 -116l-36 -7q10 27 19 66t9 50z" />
    <glyph glyph-name="quotedblbase" unicode="&#x201e;" horiz-adv-x="210" 
d="M43 85l65 7q-4 -11 -11.5 -27t-23 -47.5t-23.5 -41.5l-36 -7q7 18 14 44t11 45.5t4 26.5zM122 85l66 7q-40 -94 -58 -116l-36 -7q10 27 19 66t9 50z" />
    <glyph glyph-name="bullet" unicode="&#x2022;" horiz-adv-x="241" 
d="M120.5 104q-36.5 0 -62 25.5t-25.5 62t25.5 62t62 25.5t62 -25.5t25.5 -62t-25.5 -62t-62 -25.5z" />
    <glyph glyph-name="ellipsis" unicode="&#x2026;" horiz-adv-x="552" 
d="M76 0q-21 0 -35.5 14.5t-14.5 35.5t14.5 35.5t35.5 14.5t35.5 -14.5t14.5 -35.5t-14.5 -35.5t-35.5 -14.5zM276 0q-21 0 -35.5 14.5t-14.5 35.5t14.5 35.5t35.5 14.5t35.5 -14.5t14.5 -35.5t-14.5 -35.5t-35.5 -14.5zM476 0q-21 0 -35.5 14.5t-14.5 35.5t14.5 35.5
t35.5 14.5t35.5 -14.5t14.5 -35.5t-14.5 -35.5t-35.5 -14.5z" />
    <glyph glyph-name="Euro" unicode="&#x20ac;" horiz-adv-x="546" 
d="M459 627q16 -11 25 21v-182q-5 30 -16 60.5t-27 60t-40 48.5t-51 19q-43 0 -73 -33.5t-44.5 -85.5t-18.5 -123h136v-12h-137q-1 -24 -1 -67h138v-12h-138q2 -59 10 -106.5t24 -86.5t42.5 -60.5t61.5 -21.5t65 33t46 73.5t23 81.5v-182q-9 32 -25 21q-61 -40 -109 -40
q-102 0 -177.5 83t-84.5 205h-46v12h45q-1 37 3 67h-48v12h50q18 110 90.5 182.5t167.5 72.5q48 0 109 -40z" />
    <glyph glyph-name="O.alt1" unicode="&#xf021;" horiz-adv-x="657" 
d="M328 188q-80 0 -148 35.5t-107.5 96.5t-39.5 132q0 108 86.5 184t208.5 76q81 0 149 -34.5t107.5 -94.5t39.5 -131q0 -108 -87 -186t-209 -78zM328.5 700q-55.5 0 -95 -35t-57.5 -89.5t-18 -123.5t18 -124.5t57.5 -91.5t95 -36t95 36t57.5 91.5t18 124.5t-18 123.5
t-57.5 89.5t-95 35zM571 88h-485v12h485v-12z" />
    <glyph glyph-name="o.alt1" unicode="&#xf043;" horiz-adv-x="657" 
d="M328 188q-80 0 -148 35.5t-107.5 96.5t-39.5 132q0 108 86.5 184t208.5 76q81 0 149 -34.5t107.5 -94.5t39.5 -131q0 -108 -87 -186t-209 -78zM328.5 700q-55.5 0 -95 -35t-57.5 -89.5t-18 -123.5t18 -124.5t57.5 -91.5t95 -36t95 36t57.5 91.5t18 124.5t-18 123.5
t-57.5 89.5t-95 35zM571 88h-485v12h485v-12z" />
    </font>
</defs>
</svg>
